<?xml version="1.0" standalone="no"?>
<!DOCTYPE svg PUBLIC "-//W3C//DTD SVG 20010904//EN"
 "http://www.w3.org/TR/2001/REC-SVG-20010904/DTD/svg10.dtd">
<svg version="1.0" xmlns="http://www.w3.org/2000/svg"
 width="256.000000pt" height="256.000000pt" viewBox="0 0 256.000000 256.000000"
 preserveAspectRatio="xMidYMid meet">
<metadata>
Created by potrace 1.11, written by Peter Selinger 2001-2013
</metadata>
<g transform="translate(0.000000,256.000000) scale(0.100000,-0.100000)"
fill="#000000" stroke="none">
<path d="M910 1972 c-19 -9 -45 -32 -57 -51 l-23 -34 0 -456 c0 -500 1 -509
60 -620 92 -172 309 -267 496 -217 241 64 392 311 330 542 -34 127 -121 236
-236 294 -75 37 -141 50 -265 50 l-105 0 0 209 0 209 -26 32 c-51 60 -110 74
-174 42z m415 -783 c119 -33 159 -187 71 -275 -88 -88 -242 -48 -275 71 -12
43 -15 198 -4 208 10 11 165 8 208 -4z"/>
</g>
</svg>
