<svg width="751" height="97" viewBox="0 0 751 97" fill="none" xmlns="http://www.w3.org/2000/svg">
<path d="M116.155 72C115.512 72 114.999 71.4793 114.999 70.8438C114.999 64.0978 128.706 61.1805 143.216 58.0947C149.893 56.6781 156.792 55.2079 161.838 53.4161C166.991 51.5938 169.602 49.6412 169.602 47.612C169.602 45.5829 166.991 43.6303 161.838 41.8079C156.792 40.0162 149.885 38.5537 143.216 37.1294C128.706 34.0436 114.999 31.1262 114.999 24.3803C114.999 17.6344 128.706 14.7247 143.216 11.6388C149.893 10.2223 156.792 8.7521 161.838 6.96033C166.991 5.13793 169.602 3.18537 169.602 1.15623C169.602 0.520685 170.123 0 170.758 0C171.394 0 171.915 0.520685 171.915 1.15623C171.915 7.90216 158.208 10.8119 143.698 13.9053C137.021 15.3219 130.122 16.7921 125.076 18.5839C119.923 20.4063 117.312 22.3588 117.312 24.388C117.312 26.4171 119.923 28.3697 125.076 30.1921C130.122 31.9838 137.029 33.4463 143.698 34.8706C158.208 37.9564 171.915 40.8738 171.915 47.6197C171.915 54.3656 158.208 57.2753 143.698 60.3688C137.021 61.7854 130.122 63.2556 125.076 65.0473C119.923 66.8697 117.312 68.8223 117.312 70.8514C117.312 71.4793 116.791 72 116.155 72Z" fill="#85C598"/>
<path d="M218.896 50.1986C221.75 50.1986 224.565 51.2117 226.932 53.1915C229.646 55.4729 231.201 58.5586 231.433 61.8608C233.722 59.4789 236.9 58.11 240.45 58.11C243.992 58.11 247.17 59.4789 249.467 61.8608C249.692 58.5663 251.254 55.4729 253.968 53.1915C256.683 50.9101 259.993 49.9202 263.279 50.2682C261.331 47.5924 260.542 44.2283 261.153 40.7404C261.771 37.2526 263.666 34.3602 266.412 32.5119C263.202 31.7154 260.433 29.6505 258.655 26.5803C256.884 23.5101 256.482 20.0763 257.394 16.8979C254.424 18.3518 250.975 18.5451 247.642 17.3387C244.309 16.1245 241.796 13.758 240.45 10.7342C239.112 13.758 236.591 16.1245 233.258 17.3387C229.925 18.5528 226.475 18.3518 223.506 16.8979C224.418 20.0763 224.016 23.5101 222.245 26.5803C220.474 29.6505 217.698 31.7154 214.488 32.5119C217.234 34.3602 219.128 37.2526 219.747 40.7404C220.366 44.2283 219.569 47.6001 217.62 50.2682C218.038 50.2218 218.471 50.1986 218.896 50.1986ZM228.161 71.9995C228.03 71.9995 227.891 71.9763 227.759 71.9299C227.164 71.7134 226.847 71.056 227.055 70.4528L228.532 66.1452C230.211 61.2421 228.03 57.1665 225.431 54.978C222.833 52.7971 218.432 51.3509 213.893 53.8566L209.91 56.0606C209.353 56.37 208.649 56.1767 208.332 55.6198C208.015 55.0708 208.193 54.3593 208.742 54.0345L212.64 51.6834C217.079 49.0076 218.03 44.4835 217.443 41.1349C216.855 37.7862 214.411 33.8576 209.322 32.8677L204.86 31.9938C204.234 31.87 203.824 31.2746 203.932 30.6404C204.04 30.014 204.636 29.5886 205.262 29.6892L209.755 30.3929C214.875 31.1972 218.51 28.3358 220.211 25.397C221.913 22.4583 222.562 17.8723 219.306 13.8431L216.445 10.3011C216.043 9.80617 216.112 9.07921 216.6 8.66933C217.087 8.25945 217.814 8.31359 218.231 8.8008L221.224 12.2268C224.627 16.1322 229.252 16.2792 232.446 15.1191C235.64 13.9591 239.081 10.8657 239.182 5.69191L239.267 1.14457C239.274 0.510416 239.8 0 240.434 0C241.069 0 241.594 0.510416 241.602 1.14457L241.687 5.69191C241.78 10.8734 245.229 13.9591 248.423 15.1191C251.617 16.2792 256.242 16.1322 259.645 12.2268L262.63 8.8008C263.047 8.32132 263.774 8.25945 264.262 8.66933C264.749 9.07921 264.818 9.80617 264.416 10.3011L261.555 13.8431C258.299 17.8723 258.956 22.4506 260.65 25.397C262.351 28.3358 265.986 31.1972 271.106 30.3929L275.599 29.6892C276.225 29.5886 276.821 30.014 276.929 30.6404C277.037 31.2668 276.628 31.87 276.001 31.9938L271.539 32.8677C266.45 33.8653 264.014 37.794 263.419 41.1349C262.831 44.4835 263.782 49.0076 268.213 51.6834L272.111 54.0345C272.66 54.367 272.838 55.0708 272.521 55.6198C272.204 56.1689 271.5 56.37 270.943 56.0606L266.961 53.8566C262.429 51.3509 258.028 52.7893 255.422 54.978C252.824 57.1588 250.635 61.2421 252.321 66.1452L253.798 70.4528C254.007 71.056 253.69 71.7134 253.094 71.9299C252.491 72.1465 251.834 71.8449 251.602 71.2494L249.962 67.0036C248.098 62.1702 243.806 60.4456 240.411 60.4456C237.016 60.4456 232.716 62.1702 230.86 67.0036L229.221 71.2494C229.074 71.7134 228.625 71.9995 228.161 71.9995Z" fill="#85C598"/>
<path d="M41.566 69.312C41.566 69.312 41.5571 69.312 41.566 69.312V69.312ZM41.4952 69.3208C41.5129 69.3208 41.5306 69.3208 41.5306 69.3208L41.619 69.2677L41.6898 69.1705C45.2 64.2455 53.2108 51.3186 53.2108 36.0132C53.2108 34.068 53.0782 32.0697 52.8129 30.0626C51.1064 17.1534 44.4219 6.66682 41.6279 2.75869C41.619 2.741 41.5837 2.69679 41.5041 2.69679C41.4245 2.69679 41.3891 2.74984 41.3803 2.75869C38.5862 6.66682 31.8929 17.1534 30.1864 30.0626C29.9211 32.0697 29.7885 34.0768 29.7885 36.0221C29.7885 51.4336 37.8966 64.4047 41.3803 69.2766C41.398 69.3031 41.4157 69.312 41.4245 69.3208H41.4952ZM41.5041 71.9999C41.398 71.9999 41.2919 71.9911 41.1858 71.9822C41.1416 71.9734 41.0885 71.9734 41.0443 71.9645H40.8498L40.6818 71.8761C40.6553 71.8673 40.6376 71.8584 40.6111 71.8496C40.5315 71.8231 40.4696 71.7965 40.4342 71.7789C39.9567 71.5932 39.5235 71.2483 39.2052 70.8062C35.5711 65.731 27.1183 52.1851 27.1183 35.9955C27.1183 33.9354 27.2597 31.8133 27.5427 29.6912C29.3287 16.1896 36.2962 5.26095 39.2052 1.18482C39.7357 0.442097 40.5934 0 41.5041 0C42.4148 0 43.2725 0.442098 43.803 1.17598C46.7208 5.25211 53.6883 16.1807 55.4744 29.6912C55.7573 31.8133 55.8988 33.9265 55.8988 35.9867C55.8988 52.1055 47.4989 65.6249 43.856 70.7355C43.8295 70.7797 43.7942 70.8239 43.7676 70.8593C43.7411 70.8947 43.7057 70.93 43.6792 70.9654L43.5554 71.098C43.5024 71.1599 43.4405 71.213 43.3697 71.266C43.1664 71.4429 42.9542 71.5843 42.7154 71.6993C42.6359 71.7346 42.5563 71.77 42.4767 71.7965C42.3706 71.8319 42.2557 71.8761 42.1319 71.9026C41.9197 71.9734 41.7163 71.9999 41.5041 71.9999Z" fill="#85C598"/>
<path d="M41.5041 69.3297C41.4864 69.3209 41.4775 69.3209 41.4599 69.3209C41.4245 69.3121 41.3803 69.3032 41.3361 69.2944L41.5041 69.3297ZM40.9382 71.9381C40.8674 71.9293 40.8144 71.9116 40.7613 71.9027C40.7348 71.8939 40.6994 71.8851 40.6729 71.8762C40.558 71.8409 40.4784 71.8055 40.4519 71.7878L41.1946 70.2405L41.1769 70.3377L41.2211 70.2405L41.1769 70.3377L41.2211 70.2405L40.9382 71.9381Z" fill="#85C598"/>
<path d="M41.23 71.9823C41.1327 71.9735 41.0266 71.9646 40.9293 71.9381C40.8674 71.9293 40.779 71.9027 40.6729 71.8585L41.3891 69.7011L41.3537 70.1609L41.398 70.0459L41.23 71.9823Z" fill="#85C598"/>
<path d="M80.1787 15.1197C80.1522 15.1197 80.1345 15.1285 80.1256 15.1285C75.6958 16.6316 64.44 21.1233 55.5981 30.2836C55.5627 30.319 55.545 30.3808 55.5539 30.4427C55.7749 32.3084 55.881 34.1829 55.881 36.0043C55.881 49.5236 49.9746 61.2127 45.9162 67.6496C52.7333 64.7671 63.1933 59.0376 70.3553 49.055C79.3299 36.5525 80.3202 21.2737 80.329 15.2788C80.329 15.2611 80.329 15.1992 80.2671 15.1462C80.2317 15.1285 80.2052 15.1197 80.1787 15.1197ZM41.5659 69.3119C41.5659 69.3119 41.5571 69.3119 41.5659 69.3119V69.3119ZM41.504 71.9999C41.4068 71.9999 41.3184 71.9999 41.2388 71.991C41.1592 71.9822 41.0796 71.9733 40.9912 71.9468L41.4687 69.3296C41.4333 69.3296 41.3979 69.3207 41.3537 69.3207H41.4687C41.504 69.3207 41.5217 69.3207 41.5217 69.3207L41.6101 69.2677L41.6809 69.1704C45.1911 64.2455 53.2019 51.3186 53.2019 36.0132C53.2019 34.289 53.0958 32.5294 52.8925 30.7611C52.7952 29.8945 53.0781 29.0457 53.6706 28.4356C62.9192 18.8598 74.6436 14.1736 79.2591 12.6086C80.1256 12.3168 81.0806 12.4582 81.8144 12.9888C82.5572 13.5193 82.9993 14.3769 82.9993 15.2877C82.9904 21.5389 81.9559 37.4898 72.5304 50.6201C63.1049 63.7503 48.33 69.8424 42.4148 71.8495L42.3706 71.8584C42.344 71.8672 42.3175 71.8761 42.291 71.8849C42.2114 71.9114 42.1318 71.9291 42.0434 71.9468C41.955 71.9645 41.8754 71.9733 41.787 71.9822C41.7074 71.9999 41.6013 71.9999 41.504 71.9999Z" fill="#85C598"/>
<path d="M2.82942 15.1197C2.80289 15.1197 2.77637 15.1285 2.741 15.155C2.67027 15.1992 2.67027 15.2611 2.67027 15.2876C2.67911 21.2736 3.66941 36.5613 12.644 49.0639C19.7971 59.0376 30.2571 64.7671 37.0654 67.6584C33.007 61.2215 27.1005 49.5413 27.1005 36.022C27.1005 34.2006 27.2155 32.3261 27.4365 30.4516C27.4454 30.3897 27.4277 30.3278 27.3923 30.2924C18.5592 21.1233 7.30344 16.6405 2.88247 15.1285C2.87363 15.1285 2.85595 15.1197 2.82942 15.1197ZM40.894 71.9379C40.8586 71.9291 40.7879 71.9203 40.7083 71.8937C40.6818 71.8849 40.6552 71.876 40.6376 71.8672L40.5933 71.8495C34.6781 69.8424 19.9032 63.7503 10.4777 50.6112C1.04335 37.4809 0.00884194 21.5301 0 15.2788C0 14.3681 0.442097 13.5016 1.18482 12.9711C1.92754 12.4405 2.88247 12.2991 3.74014 12.5909C8.35563 14.1559 20.0712 18.8421 29.3199 28.4179C29.9123 29.0369 30.1952 29.8857 30.098 30.7434C29.8946 32.5117 29.7885 34.2801 29.7885 36.0043C29.7885 51.4158 37.8965 64.3869 41.3803 69.2588C41.398 69.2765 41.4068 69.2942 41.4245 69.303L41.4864 69.3207L41.5483 69.3473L41.5836 69.3649C41.5836 69.3649 41.5748 69.3649 41.5748 69.3561L41.6102 69.3738C41.5925 69.3649 41.5748 69.3561 41.5483 69.3473L41.3272 70.0192L40.894 71.9379Z" fill="#85C598"/>
<path d="M41.5129 69.3299L41.5394 69.3211H41.5306C41.5217 69.3299 41.5217 69.3299 41.5129 69.3299ZM41.5041 69.3299C41.4333 69.3476 41.3449 69.3741 41.2476 69.4272L41.4687 69.8605L41.6897 69.3918C41.619 69.3653 41.5483 69.3476 41.5041 69.3299ZM41.5041 72.0002C41.4068 72.0002 41.3184 72.0002 41.2388 71.9914C41.1592 71.9825 41.0885 71.9737 41.0266 71.9648H40.8498L40.5403 71.8057L41.1681 70.4971L41.1857 69.2857H41.3537L41.4952 69.3211C41.5217 69.3211 41.5394 69.3211 41.5394 69.3211L52.8217 66.6331L42.4413 71.8145C42.2821 71.8941 42.1495 71.9295 42.0523 71.9471C41.9727 71.9648 41.8843 71.9737 41.8047 71.9825C41.7074 72.0002 41.6013 72.0002 41.5041 72.0002Z" fill="#85C598"/>
<path d="M41.5305 69.3207L41.5571 69.3119C41.5482 69.3207 41.5394 69.3207 41.5305 69.3207ZM42.0787 71.9379L41.6809 69.8512L41.5924 69.4003L41.6367 69.5064L41.6013 69.303L41.5836 69.3119L41.619 69.303L41.7074 69.6744L42.5562 71.7964C42.4943 71.823 42.4236 71.8495 42.3617 71.8672L42.2556 71.8937C42.1849 71.9202 42.1318 71.9291 42.0787 71.9379Z" fill="#85C598"/>
<path d="M328.539 2.64751C328.346 2.64751 328.144 2.64751 327.952 2.65628C322.464 2.82284 317.563 5.73335 314.495 10.6339C309.84 18.0767 310.865 28.132 316.932 34.5579L349.737 69.2648C349.842 69.3788 349.982 69.3788 350.087 69.2648L382.892 34.5579C388.958 28.1408 389.984 18.0767 385.329 10.6339C382.261 5.73335 377.36 2.82284 371.872 2.65628C371.679 2.64751 371.486 2.64751 371.285 2.64751C360.3 2.64751 351.367 12.2908 351.367 24.1432C351.367 24.8796 350.771 25.4669 350.043 25.4669H349.798C349.062 25.4669 348.474 24.8708 348.474 24.1432C348.457 12.282 339.523 2.64751 328.539 2.64751ZM349.912 72C349.114 72 348.369 71.6756 347.808 71.0883L315.003 36.3813C308.122 29.0963 306.964 17.6822 312.251 9.23122C315.792 3.568 321.491 0.210398 327.873 0.00876679C328.092 2.00847e-07 328.32 0 328.539 0C338.436 0 346.87 6.85547 349.903 16.3672C352.936 6.86424 361.37 0 371.267 0C371.495 0 371.714 2.00847e-07 371.934 0.00876679C378.316 0.210398 384.014 3.568 387.556 9.23122C392.842 17.6822 391.685 29.0963 384.803 36.3813L351.998 71.0883C351.455 71.6756 350.71 72 349.912 72Z" fill="#85C598"/>
<line x1="2" y1="95" x2="749" y2="95" stroke="url(#paint0_linear)" stroke-width="4" stroke-linecap="round"/>
<defs>
<linearGradient id="paint0_linear" x1="0" y1="97" x2="751" y2="96.9998" gradientUnits="userSpaceOnUse">
<stop stop-color="#86C598"/>
<stop offset="1" stop-color="#86C598" stop-opacity="0"/>
</linearGradient>
</defs>
</svg>
