<svg width="1135" height="96" viewBox="0 0 1135 96" fill="none" xmlns="http://www.w3.org/2000/svg">
<path d="M36.1539 6.13134C36.1156 6.13134 36.0774 6.13899 36.0468 6.16192L2.38528 30.0071C2.33177 30.0453 2.30883 30.0912 2.30883 30.1524C2.30883 30.2135 2.33177 30.267 2.38528 30.2976L36.0468 54.1428C36.108 54.1887 36.1921 54.1887 36.2532 54.1428L69.9148 30.2976C69.9683 30.2594 69.9912 30.2135 69.9912 30.1524C69.9912 30.0912 69.9683 30.0453 69.9148 30.0071L36.2609 6.16192C36.2303 6.13899 36.1921 6.13134 36.1539 6.13134ZM36.1539 56.4899C35.6493 56.4899 35.1447 56.337 34.7166 56.0312L1.05503 32.186C0.389902 31.7196 0 30.9627 0 30.1524C0 29.342 0.389902 28.5851 1.05503 28.1188L1.72016 29.0591L1.05503 28.1188L34.7166 4.28122C35.5805 3.66961 36.7349 3.66961 37.5988 4.28122L71.2603 28.1264C71.9178 28.5928 72.3154 29.3496 72.3154 30.16C72.3154 30.9704 71.9255 31.7273 71.2603 32.1936L37.5988 56.0312C37.163 56.337 36.6584 56.4899 36.1539 56.4899Z" fill="#1A25E0"/>
<path d="M60.1443 67.9957H12.1711C10.7949 67.9957 9.67874 66.9636 9.67874 65.6868V38.1261H11.9876V65.6333C12.0182 65.6562 12.0717 65.6868 12.1634 65.6868H60.1367C60.2284 65.6868 60.2896 65.6562 60.3125 65.6333V38.1261H62.629V65.6792C62.6366 66.9559 61.5204 67.9957 60.1443 67.9957Z" fill="#1A25E0"/>
<path d="M106.632 67.7512C106.632 67.7512 106.678 67.7894 106.754 67.7894H171.096C171.18 67.7894 171.218 67.7435 171.218 67.7359V18.5776C171.21 18.5776 171.18 18.5394 171.096 18.5394H106.754C106.678 18.5394 106.64 18.5776 106.632 18.5853V67.7512ZM171.088 70.1059H106.754C105.409 70.1059 104.315 69.0509 104.315 67.7512V18.5853C104.315 17.2856 105.409 16.2306 106.754 16.2306H171.096C172.441 16.2306 173.534 17.2856 173.534 18.5853V67.7512C173.527 69.0432 172.434 70.1059 171.088 70.1059Z" fill="#1A25E0"/>
<path d="M135.867 39.0283C135.798 39.0283 135.745 39.0818 135.745 39.1506V49.4104C135.745 49.4792 135.798 49.5327 135.867 49.5327H141.608C141.677 49.5327 141.731 49.4792 141.731 49.4104V39.1583C141.731 39.0895 141.677 39.036 141.608 39.036H135.867V39.0283ZM141.608 51.8492H135.867C134.521 51.8492 133.428 50.756 133.428 49.4104V39.1583C133.428 37.8127 134.521 36.7195 135.867 36.7195H141.608C142.954 36.7195 144.047 37.8127 144.047 39.1583V49.4181C144.047 50.756 142.954 51.8492 141.608 51.8492Z" fill="#1A25E0"/>
<path d="M153.833 17.3851H151.524C151.524 10.3363 145.79 4.60241 138.741 4.60241C131.693 4.60241 125.959 10.3363 125.959 17.3851H123.65C123.65 9.05953 130.424 2.29358 138.741 2.29358C147.059 2.29358 153.833 9.05953 153.833 17.3851Z" fill="#1A25E0"/>
<path d="M133.749 43.1263H105.103V45.4352H133.749V43.1263Z" fill="#1A25E0"/>
<path d="M172.372 43.1263H142.923V45.4352H172.372V43.1263Z" fill="#1A25E0"/>
<path d="M241.459 2.31648C222.927 2.31648 207.851 17.3927 207.851 35.9245C207.851 54.4563 222.927 69.5325 241.459 69.5325C259.991 69.5325 275.067 54.4563 275.067 35.9245C275.067 17.4003 259.991 2.31648 241.459 2.31648ZM241.459 71.849C221.65 71.849 205.534 55.7331 205.534 35.9245C205.534 16.1159 221.65 0 241.459 0C261.267 0 277.383 16.1159 277.383 35.9245C277.376 55.7407 261.26 71.849 241.459 71.849Z" fill="#1A25E0"/>
<path d="M241.459 58.1718C240.817 58.1718 240.305 57.652 240.305 57.0174V41.8036C240.305 41.1614 240.824 40.6492 241.459 40.6492C242.093 40.6492 242.613 41.169 242.613 41.8036V57.0174C242.613 57.652 242.093 58.1718 241.459 58.1718Z" fill="#1A25E0"/>
<path d="M241.459 58.1718C240.817 58.1718 240.305 57.652 240.305 57.0174V41.8036C240.305 41.1614 240.824 40.6492 241.459 40.6492C242.093 40.6492 242.613 41.169 242.613 41.8036V57.0174C242.613 57.652 242.093 58.1718 241.459 58.1718Z" fill="#1A25E0"/>
<path d="M241.459 31.2152C240.817 31.2152 240.305 30.6953 240.305 30.0607V14.8469C240.305 14.2047 240.824 13.6925 241.459 13.6925C242.093 13.6925 242.613 14.2124 242.613 14.8469V30.0607C242.613 30.6953 242.093 31.2152 241.459 31.2152Z" fill="#1A25E0"/>
<path d="M241.459 31.2152C240.817 31.2152 240.305 30.6953 240.305 30.0607V14.8469C240.305 14.2047 240.824 13.6925 241.459 13.6925C242.093 13.6925 242.613 14.2124 242.613 14.8469V30.0607C242.613 30.6953 242.093 31.2152 241.459 31.2152Z" fill="#1A25E0"/>
<path d="M235.587 37.0868H220.374C219.731 37.0868 219.219 36.5669 219.219 35.9324C219.219 35.2978 219.739 34.778 220.374 34.778H235.587C236.222 34.778 236.742 35.2978 236.742 35.9324C236.742 36.5669 236.222 37.0868 235.587 37.0868Z" fill="#1A25E0"/>
<path d="M235.587 37.0868H220.374C219.731 37.0868 219.219 36.5669 219.219 35.9324C219.219 35.2978 219.739 34.778 220.374 34.778H235.587C236.222 34.778 236.742 35.2978 236.742 35.9324C236.742 36.5669 236.222 37.0868 235.587 37.0868Z" fill="#1A25E0"/>
<path d="M262.544 37.0868H247.33C246.688 37.0868 246.176 36.5669 246.176 35.9324C246.176 35.2978 246.696 34.778 247.33 34.778H262.544C263.179 34.778 263.699 35.2978 263.699 35.9324C263.699 36.5669 263.179 37.0868 262.544 37.0868Z" fill="#1A25E0"/>
<path d="M262.544 37.0868H247.33C246.688 37.0868 246.176 36.5669 246.176 35.9324C246.176 35.2978 246.696 34.778 247.33 34.778H262.544C263.179 34.778 263.699 35.2978 263.699 35.9324C263.699 36.5669 263.179 37.0868 262.544 37.0868Z" fill="#1A25E0"/>
<path d="M378.151 17.3449C377.853 17.3449 377.555 17.2303 377.333 17.0009L362.418 1.97056C361.967 1.5195 361.974 0.785562 362.425 0.334499C362.876 -0.116564 363.61 -0.108919 364.061 0.342144L378.977 15.3725C379.428 15.8236 379.421 16.5575 378.969 17.0085C378.74 17.2303 378.45 17.3449 378.151 17.3449Z" fill="#1A25E0"/>
<path d="M363.182 17.2839C362.884 17.2839 362.586 17.1692 362.364 16.9399C361.913 16.4888 361.921 15.7549 362.372 15.3038L377.402 0.388129C377.853 -0.0629341 378.587 -0.0629342 379.038 0.395774C379.489 0.854482 379.482 1.58077 379.031 2.03183L364 16.9475C363.771 17.1692 363.473 17.2839 363.182 17.2839Z" fill="#1A25E0"/>
<path d="M350.958 17.3142C350.659 17.3142 350.361 17.1995 350.14 16.9702C349.689 16.5191 349.696 15.7852 350.147 15.3341L356.86 8.68285L350.224 2.001C349.773 1.54993 349.78 0.815999 350.231 0.364936C350.682 -0.0861275 351.416 -0.0861275 351.867 0.372581L359.321 7.87246C359.535 8.08653 359.658 8.38469 359.658 8.69049C359.658 8.9963 359.535 9.28681 359.314 9.50852L351.783 16.9778C351.546 17.1995 351.248 17.3142 350.958 17.3142Z" fill="#1A25E0"/>
<path d="M364.405 64.1106H326.761C326.126 64.1106 325.606 63.5907 325.606 62.9561C325.606 62.3216 326.126 61.8017 326.761 61.8017H364.405C370.766 61.8017 375.95 56.1214 375.95 49.149C375.95 42.169 370.774 36.4963 364.405 36.4963H325.691C318.298 36.4963 312.273 29.9979 312.273 22.0088C312.273 14.0196 318.29 7.52124 325.691 7.52124H357.51C358.152 7.52124 358.664 8.04111 358.664 8.67566C358.664 9.3102 358.144 9.83007 357.51 9.83007H325.691C319.567 9.83007 314.59 15.2887 314.59 22.0088C314.59 28.7212 319.567 34.1875 325.691 34.1875H364.405C372.043 34.1875 378.258 40.8999 378.258 49.1567C378.258 57.3981 372.043 64.1106 364.405 64.1106Z" fill="#1A25E0"/>
<path d="M318.649 55.7846C314.811 55.7846 311.7 58.9038 311.7 62.734C311.7 66.5643 314.819 69.6835 318.649 69.6835C322.48 69.6835 325.599 66.5643 325.599 62.734C325.599 58.9038 322.48 55.7846 318.649 55.7846ZM318.649 72C313.542 72 309.383 67.841 309.383 62.734C309.383 57.6271 313.542 53.4681 318.649 53.4681C323.756 53.4681 327.915 57.6271 327.915 62.734C327.915 67.8486 323.756 72 318.649 72Z" fill="#1A25E0"/>
<line x1="2" y1="94" x2="1133" y2="93.9998" stroke="url(#paint0_linear)" stroke-width="4" stroke-linecap="round"/>
<defs>
<linearGradient id="paint0_linear" x1="0" y1="96" x2="1135" y2="95.9994" gradientUnits="userSpaceOnUse">
<stop stop-color="#304898"/>
<stop offset="1" stop-color="#304898" stop-opacity="0"/>
</linearGradient>
</defs>
</svg>
