<svg width="154" height="56" viewBox="0 0 154 56" fill="none" xmlns="http://www.w3.org/2000/svg">
<path d="M46.1671 56H9.835C4.40382 56 0 51.5961 0 46.1651V9.83281C0 4.40186 4.40382 0 9.835 0H46.1671C51.5982 0 56 4.40186 56 9.83281V46.1651C56 51.5961 51.5982 56 46.1671 56Z" fill="#0F0A30"/>
<path d="M46.2144 48.7081H31.6647C30.2976 48.7081 29.1879 47.5989 29.1879 46.2309V31.6819C29.1879 30.3139 30.2976 29.2047 31.6647 29.2047H46.2144C47.5815 29.2047 48.6912 30.3139 48.6912 31.6819V46.2309C48.6912 47.6009 47.5835 48.7081 46.2144 48.7081Z" fill="#1A25E0"/>
<path d="M24.2859 48.7081H9.73824C8.36912 48.7081 7.26147 47.5989 7.26147 46.2309V31.6819C7.26147 30.3139 8.37118 29.2047 9.73824 29.2047H24.2859C25.6529 29.2047 26.7626 30.3139 26.7626 31.6819V46.2309C26.7647 47.6009 25.655 48.7081 24.2859 48.7081Z" fill="white"/>
<path d="M31.5453 26.781H9.73824C8.36912 26.781 7.26147 25.6718 7.26147 24.3038V9.75687C7.26147 8.38886 8.37118 7.27966 9.73824 7.27966H31.5453C32.9124 7.27966 34.0221 8.38886 34.0221 9.75687V24.3038C34.0241 25.6718 32.9144 26.781 31.5453 26.781Z" fill="#85C598"/>
<path d="M46.2144 26.781H38.9879C37.6188 26.781 36.5112 25.6718 36.5112 24.3038V9.75687C36.5112 8.38886 37.6209 7.27966 38.9879 7.27966H46.2144C47.5815 7.27966 48.6912 8.38886 48.6912 9.75687V24.3038C48.6912 25.6718 47.5835 26.781 46.2144 26.781Z" fill="#6006AE"/>
<path d="M15.3239 39.8715V41.5722C15.3239 42.5109 16.0877 43.275 17.0265 43.275C17.9653 43.275 18.7291 42.5109 18.7291 41.5722C18.7291 40.6335 17.9653 39.8715 17.0265 39.8715H15.3239ZM17.0265 46.1836C14.4839 46.1836 12.4147 44.1152 12.4147 41.5722V33.1855C12.4147 32.3823 13.0653 31.7312 13.8703 31.7312C14.6733 31.7312 15.3259 32.3823 15.3259 33.1855V36.9629H17.0286C19.5712 36.9629 21.6403 39.0314 21.6403 41.5743C21.6362 44.1152 19.5691 46.1836 17.0265 46.1836Z" fill="#0F0A30"/>
<path d="M22.8447 22.4817C21.7082 22.4817 20.5594 22.3626 19.4867 22.1263C17.4959 21.6888 16.3615 20.6228 15.9662 19.7724C15.612 19.0124 15.6491 18.1805 16.0732 17.3691C17.0223 15.5554 20.1662 15.1302 22.6409 15.6519C23.0423 15.7361 23.2997 16.1305 23.2153 16.5311C23.1309 16.9337 22.7356 17.1904 22.3341 17.1062C20.162 16.6481 17.8994 17.0857 17.3888 18.0593C17.1788 18.4619 17.1541 18.807 17.3126 19.1459C17.6173 19.7991 18.62 20.4153 19.8059 20.6762C21.5806 21.0664 23.5879 21.1034 25.3153 20.7748C27.6973 20.3229 28.8338 19.3636 29.367 18.6365C29.8406 17.9915 29.9476 17.3157 29.6841 16.6235C29.1488 15.2165 27.1765 13.9676 24.6626 13.4376C22.0294 12.883 19.1717 12.9405 16.6147 13.5979C14.1647 14.2284 12.2376 15.3787 11.3297 16.7529C11.1032 17.0959 10.642 17.1884 10.3003 16.9624C9.95851 16.7365 9.8638 16.2743 10.0903 15.9333C11.2164 14.2326 13.4029 12.8913 16.2462 12.16C19.0194 11.4472 22.1179 11.3836 24.9715 11.9854C28.0597 12.6365 30.3409 14.173 31.0759 16.0977C31.5185 17.2582 31.3373 18.4742 30.5673 19.5218C29.575 20.8692 27.8559 21.81 25.5953 22.2373C24.7244 22.3995 23.7897 22.4817 22.8447 22.4817Z" fill="white"/>
<path d="M38.9406 33.4566C38.8726 33.4566 38.78 33.4813 38.7368 33.5984L37.6188 36.6302C37.4459 37.0985 37.0794 37.4662 36.61 37.6387L33.5794 38.7561C33.4621 38.7993 33.4374 38.8897 33.4374 38.9595C33.4374 39.0273 33.4621 39.1197 33.5794 39.1628L36.61 40.2803C37.0774 40.4528 37.4459 40.8205 37.6188 41.2888L38.7368 44.3206C38.78 44.4377 38.8706 44.4623 38.9406 44.4623C39.0085 44.4623 39.0991 44.4377 39.1424 44.3206L40.2603 41.2888C40.4332 40.8205 40.7997 40.4528 41.2691 40.2803L44.2997 39.1628C44.4171 39.1197 44.4418 39.0293 44.4418 38.9595C44.4418 38.8897 44.4171 38.7993 44.2997 38.7561L41.2691 37.6387C40.8018 37.4662 40.4332 37.0985 40.2603 36.6302L39.1424 33.5984C39.0991 33.4813 39.0085 33.4566 38.9406 33.4566ZM38.9406 45.9454C38.22 45.9454 37.5921 45.5078 37.3429 44.8321L36.225 41.8003C36.2024 41.7407 36.1571 41.6935 36.0974 41.6729L33.0668 40.5555C32.3894 40.307 31.9529 39.6784 31.9529 38.9595C31.9529 38.2385 32.3894 37.612 33.0668 37.3614L36.0974 36.244C36.1571 36.2214 36.2044 36.1762 36.225 36.1167L37.3429 33.0849C37.5921 32.4091 38.22 31.9716 38.9406 31.9716C39.6612 31.9716 40.2891 32.4091 40.5382 33.0849L41.6562 36.1167C41.6788 36.1762 41.7241 36.2235 41.7838 36.244L44.8144 37.3614C45.4918 37.61 45.9282 38.2385 45.9282 38.9595C45.9282 39.6805 45.4918 40.307 44.8144 40.5555L41.7838 41.6729C41.7241 41.6955 41.6768 41.7407 41.6562 41.8003L40.5382 44.8321C40.2871 45.5078 39.6612 45.9454 38.9406 45.9454Z" fill="white"/>
<path d="M42.8935 22.9173C42.8379 22.9173 42.7844 22.9131 42.7267 22.9029C42.2203 22.8207 41.8517 22.3668 41.8517 21.8245V14.4155C41.8517 14.3888 41.8167 14.3826 41.8064 14.4073L40.8985 16.564C40.7338 16.9564 40.3632 17.209 39.9535 17.209H38.9673C38.5803 17.209 38.2426 16.9173 38.2159 16.5312C38.1891 16.108 38.5247 15.7547 38.9426 15.7547H39.5088C39.5994 15.7547 39.6817 15.6993 39.7167 15.6171L41.3267 11.7924C41.5223 11.3282 41.9897 11.0694 42.4653 11.1659C42.9594 11.2645 43.3053 11.7062 43.3053 12.2361V19.1316C43.3053 19.1583 43.3423 19.1645 43.3526 19.1398L44.2482 16.4798C44.3944 16.0464 44.7856 15.7568 45.222 15.7568H46.2309C46.6179 15.7568 46.9556 16.0485 46.9823 16.4346C47.0091 16.8578 46.6735 17.2111 46.2576 17.2111H45.7017C45.605 17.2111 45.5185 17.2727 45.4876 17.3651L43.8611 22.1963C43.7109 22.6358 43.3259 22.9173 42.8935 22.9173Z" fill="white"/>
<g clip-path="url(#clip0)">
<path d="M76.262 21.627C74.8247 21.627 73.6564 20.4586 73.6564 19.0214V16.4181H76.262C77.6992 16.4181 78.8676 17.5864 78.8676 19.0236C78.8676 20.4586 77.6992 21.627 76.262 21.627ZM76.262 12.7594H73.6587V8.17195C73.6587 7.16181 72.8383 6.34375 71.8282 6.34375C70.8181 6.34375 70 7.16181 70 8.17195V19.0214C70 22.4744 72.809 25.2834 76.262 25.2834C79.715 25.2834 82.524 22.4744 82.524 19.0214C82.524 15.5684 79.715 12.7594 76.262 12.7594Z" fill="white"/>
<path d="M78.8676 39.4502H76.262C74.8247 39.4502 73.6564 38.2819 73.6564 36.8446C73.6564 35.4074 74.8247 34.239 76.262 34.239C77.6992 34.239 78.8676 35.4074 78.8676 36.8446V39.4502ZM76.262 30.5826C72.809 30.5826 70 33.3939 70 36.8469C70 40.2999 72.809 43.1089 76.262 43.1089H80.6958C81.7059 43.1089 82.524 42.2908 82.524 41.2807V36.8469C82.524 33.3939 79.715 30.5826 76.262 30.5826Z" fill="#1A25E0"/>
<path d="M138.299 12.7594H136.873C133.955 12.7594 131.583 15.1322 131.583 18.0519V23.4574C131.583 24.4676 132.401 25.2856 133.411 25.2856C134.421 25.2856 135.239 24.4676 135.239 23.4574V18.0519C135.239 17.1502 135.971 16.4181 136.873 16.4181H138.299C139.309 16.4181 140.127 15.6 140.127 14.5899C140.127 13.5775 139.309 12.7594 138.299 12.7594Z" fill="white"/>
<path d="M113.963 12.7594H110.638V8.17195C110.638 7.16181 109.82 6.34375 108.81 6.34375C107.8 6.34375 106.982 7.16181 106.982 8.17195V12.7594H101.884V8.17195C101.884 7.16181 101.066 6.34375 100.056 6.34375C99.0455 6.34375 98.2275 7.16181 98.2275 8.17195V19.0643C98.2275 22.5173 101.036 25.3263 104.489 25.3263C105.5 25.3263 106.318 24.5082 106.318 23.4981C106.318 22.4879 105.5 21.6699 104.489 21.6699C103.054 21.6699 101.884 20.5016 101.884 19.0643V16.4181H106.982V19.0666C106.982 22.5196 109.791 25.3286 113.244 25.3286C114.254 25.3286 115.072 24.5105 115.072 23.5004C115.072 22.4902 114.254 21.6722 113.244 21.6722C111.807 21.6722 110.638 20.5038 110.638 19.0666V16.4181H113.963C114.973 16.4181 115.791 15.6 115.791 14.5899C115.791 13.5775 114.973 12.7594 113.963 12.7594Z" fill="white"/>
<path d="M90.8921 39.4118H88.3249V36.8469C88.3249 35.4322 89.4752 34.2819 90.8898 34.2819C92.3045 34.2819 93.4547 35.4322 93.4547 36.8469C93.4547 38.2615 92.3045 39.4118 90.8921 39.4118ZM90.8921 30.6233C87.5249 30.6233 84.7792 33.3147 84.6776 36.6593C84.6708 36.7203 84.6685 36.7836 84.6685 36.8469V41.24V47.6692C84.6685 48.6793 85.4866 49.4974 86.4967 49.4974C87.5069 49.4974 88.3249 48.6793 88.3249 47.6692V43.0682H90.8898C94.3202 43.0682 97.1134 40.2773 97.1134 36.8446C97.1134 33.4142 94.3225 30.6233 90.8921 30.6233Z" fill="#1A25E0"/>
<path d="M105.034 39.4118H102.469V36.8469C102.469 35.4322 103.619 34.2819 105.034 34.2819C106.449 34.2819 107.599 35.4322 107.599 36.8469C107.599 38.2615 106.449 39.4118 105.034 39.4118ZM105.034 30.6233C101.667 30.6233 98.9212 33.3147 98.8195 36.6593C98.8127 36.7203 98.8105 36.7836 98.8105 36.8469V41.24V47.6692C98.8105 48.6793 99.6285 49.4974 100.639 49.4974C101.649 49.4974 102.467 48.6793 102.467 47.6692V43.0682H105.032C108.462 43.0682 111.255 40.2773 111.255 36.8446C111.258 33.4142 108.464 30.6233 105.034 30.6233Z" fill="#1A25E0"/>
<path d="M90.4604 16.1807C91.7305 16.1807 92.7948 17.0598 93.0841 18.2417H87.8368C88.126 17.0598 89.1904 16.1807 90.4604 16.1807ZM88.4763 25.0799C89.1158 25.2856 89.7848 25.3895 90.4604 25.3895C91.509 25.3895 92.3587 24.5398 92.3587 23.4913C92.3587 22.4427 91.509 21.593 90.4604 21.593C90.178 21.593 89.9 21.5501 89.6333 21.4642C89.2085 21.3286 88.8356 21.0936 88.5373 20.793H95.0637C95.1066 20.793 95.1451 20.784 95.188 20.7795C96.1801 20.7162 96.9642 19.8936 96.9642 18.8857C96.9642 15.2994 94.0468 12.382 90.4604 12.382C86.8741 12.382 83.9567 15.2994 83.9567 18.8857C83.9567 21.7241 85.7736 24.2144 88.4763 25.0799Z" fill="white"/>
<path d="M123.312 16.1807C124.579 16.1807 125.646 17.0598 125.935 18.2417H120.688C120.977 17.0598 122.042 16.1807 123.312 16.1807ZM123.312 12.382C119.725 12.382 116.808 15.2994 116.808 18.8857C116.808 21.7263 118.625 24.2144 121.327 25.0799C121.967 25.2856 122.636 25.3895 123.312 25.3895C124.36 25.3895 125.21 24.5398 125.21 23.4913C125.21 22.4427 124.36 21.593 123.312 21.593C123.029 21.593 122.751 21.5501 122.484 21.4642C122.06 21.3286 121.687 21.0936 121.388 20.793H127.915C127.958 20.793 127.996 20.784 128.039 20.7817C129.031 20.7185 129.815 19.8959 129.815 18.888C129.813 15.2994 126.896 12.382 123.312 12.382Z" fill="white"/>
<path d="M152.172 12.6984C151.162 12.6984 150.344 13.5164 150.344 14.5266V19.0214C150.344 20.4586 149.175 21.6269 147.738 21.6269C146.301 21.6269 145.132 20.4586 145.132 19.0214V14.5876C145.132 13.5774 144.314 12.7594 143.304 12.7594C142.294 12.7594 141.476 13.5774 141.476 14.5876V19.0214C141.476 21.8394 143.347 24.2257 145.91 25.0099V27.9409C145.91 28.951 146.728 29.7691 147.738 29.7691C148.748 29.7691 149.566 28.951 149.566 27.9409V25.0099C152.129 24.2257 154 21.8394 154 19.0214V14.5266C154 13.5164 153.182 12.6984 152.172 12.6984Z" fill="white"/>
</g>
<defs>
<clipPath id="clip0">
<rect width="84" height="43.1536" fill="white" transform="translate(70 6.34375)"/>
</clipPath>
</defs>
</svg>
