<svg width="48" height="48" viewBox="0 0 48 48" fill="none" xmlns="http://www.w3.org/2000/svg">
<path opacity="0.25" fill-rule="evenodd" clip-rule="evenodd" d="M24 48C37.2548 48 48 37.2548 48 24C48 10.7452 37.2548 0 24 0C10.7452 0 0 10.7452 0 24C0 37.2548 10.7452 48 24 48ZM15.6459 20.2366C15.2243 19.8799 14.5934 19.9325 14.2366 20.3541C13.8799 20.7757 13.9325 21.4066 14.3541 21.7634L24.1041 30.0134L24.75 30.56L25.3959 30.0134L35.1459 21.7634C35.5676 21.4066 35.6201 20.7757 35.2634 20.3541C34.9066 19.9325 34.2757 19.8799 33.8541 20.2366L24.75 27.94L15.6459 20.2366Z" fill="white"/>
</svg>
