<svg width="362" height="358" viewBox="0 0 362 358" fill="none" xmlns="http://www.w3.org/2000/svg">
<path opacity="0.1" d="M54.1827 114.378C69.7381 95.673 87.6432 78.9462 106.534 65.2762C139.637 41.3143 175.969 32.5438 206.208 41.2072C228.406 47.5637 245.411 63.0978 254.088 84.9456C270.879 127.213 247.125 187.042 200.016 221.139C193.531 225.831 184.525 224.403 179.897 217.953C175.269 211.504 176.761 202.476 183.254 197.777C218.835 172.022 238.99 125.341 227.27 95.8373C221.856 82.203 211.75 72.9182 198.052 68.9972C176.697 62.8836 148.75 70.2257 123.296 88.6524C91.5998 111.593 63.7673 143.782 46.9336 176.958C33.9279 202.591 21.1865 241.158 34.3493 279.326C42.1555 301.959 58.4108 317.7 81.3653 324.857C118.175 336.327 165.827 324.585 208.836 293.453C255.467 259.706 293.034 212.247 314.631 159.816C335.807 108.415 338.971 58.7197 323.545 19.8951C320.609 12.503 324.23 4.08244 331.636 1.06847C339.043 -1.93837 347.42 1.61841 350.356 9.01051C368.561 54.8344 365.333 112.236 341.278 170.637C317.645 228.017 276.557 279.933 225.592 316.822C175.204 353.29 118.004 366.61 72.5735 352.454C41.0628 342.633 17.8012 320.093 7.07385 288.975C-13.0238 230.695 11.8947 165.237 54.1827 114.378Z" fill="white"/>
</svg>
