<svg width="552" height="110" viewBox="0 0 552 110" fill="none" xmlns="http://www.w3.org/2000/svg">
<g opacity="0.72">
<path d="M230.674 2.30112C224.798 2.30112 218.989 3.87895 213.791 6.94314C199.453 15.404 193.462 33.4461 199.85 48.9119C203.485 57.7081 210.338 64.3548 219.157 67.6324C227.892 70.8795 237.291 70.3536 245.622 66.146C252.543 62.655 258.077 56.801 261.202 49.6665C261.217 49.636 261.248 49.5521 261.172 49.4683C261.095 49.3921 261.027 49.4149 260.996 49.4226C258.26 50.3754 255.447 50.8327 252.673 50.8327C243.175 50.8327 234.105 45.4818 229.661 36.5179C223.921 24.9395 227.595 10.7391 238.213 3.49021C238.236 3.47497 238.32 3.42161 238.297 3.29965C238.274 3.18532 238.198 3.17007 238.16 3.16245C235.675 2.58315 233.167 2.30112 230.674 2.30112ZM230.674 72C226.505 72 222.328 71.2682 218.357 69.7895C208.935 66.2908 201.603 59.1868 197.723 49.7961C190.893 33.2708 197.296 14.0014 212.617 4.96133C220.537 0.288819 229.79 -1.14418 238.678 0.921475C239.654 1.15015 240.37 1.89714 240.553 2.88042C240.736 3.86371 240.34 4.83175 239.509 5.40342C229.836 12.0044 226.49 24.9395 231.719 35.4965C235.766 43.6601 244.021 48.5307 252.665 48.5307C255.188 48.5307 257.741 48.1191 260.226 47.2502C261.172 46.9224 262.178 47.174 262.856 47.9057C263.542 48.6451 263.71 49.6741 263.306 50.5964C259.96 58.2188 254.052 64.4691 246.651 68.2041C241.666 70.7271 236.178 72 230.674 72Z" fill="#6006AE"/>
<path d="M249.913 14.7332C249.807 14.7332 249.669 14.7713 249.601 14.9542L247.017 21.9363L240.035 24.5203C239.852 24.5889 239.814 24.7261 239.814 24.8328C239.814 24.9395 239.852 25.0767 240.035 25.1453L247.017 27.7293L249.601 34.7114C249.669 34.8943 249.807 34.9324 249.913 34.9324C250.02 34.9324 250.157 34.8943 250.226 34.7114L252.81 27.7293L259.792 25.1453C259.975 25.0767 260.013 24.9395 260.013 24.8328C260.013 24.7261 259.975 24.5889 259.792 24.5203L252.81 21.9363L250.226 14.9542C250.157 14.7713 250.02 14.7332 249.913 14.7332ZM249.913 37.242C248.8 37.242 247.825 36.5636 247.436 35.5193L245.218 29.5282L239.227 27.3101C238.182 26.9213 237.504 25.9533 237.504 24.8328C237.504 23.7123 238.182 22.7443 239.227 22.3555L245.218 20.1374L247.436 14.1462C247.825 13.102 248.793 12.4236 249.913 12.4236C251.026 12.4236 252.002 13.102 252.391 14.1462L254.609 20.1374L260.6 22.3555C261.644 22.7443 262.323 23.7123 262.323 24.8328C262.323 25.9457 261.644 26.9213 260.6 27.3101L254.609 29.5282L252.391 35.5193C252.002 36.5636 251.026 37.242 249.913 37.242Z" fill="#6006AE"/>
</g>
<g opacity="0.72">
<path d="M322.903 19.6287C314.945 19.6287 307.118 23.4017 302.262 30.4292C298.459 35.9324 297.026 42.5865 298.23 49.172C299.435 55.7499 303.124 61.4741 308.634 65.2699C312.971 68.2654 317.926 69.6983 322.834 69.7059C330.792 69.7059 338.62 65.933 343.475 58.9054C351.326 47.5409 348.467 31.9156 337.111 24.0648C332.766 21.0617 327.812 19.6287 322.903 19.6287ZM322.827 72.0002C317.468 72.0002 312.057 70.43 307.316 67.1601C294.907 58.5853 291.79 41.5194 300.364 29.1106C308.939 16.7018 326.005 13.5844 338.414 22.1593C350.823 30.7341 353.94 47.8 345.365 60.2088C340.068 67.8842 331.516 72.0002 322.827 72.0002Z" fill="#6006AE"/>
<path d="M342.728 2.29583C339.877 2.29583 335.197 2.78364 331.828 5.55046C327.766 8.89656 326.6 14.7427 326.287 17.0979C326.28 17.1665 326.302 17.2199 326.333 17.2504C326.356 17.2809 326.402 17.319 326.47 17.319C328.841 17.4638 334.809 17.4486 338.871 14.1101C342.934 10.764 344.1 4.91783 344.413 2.5626C344.42 2.494 344.397 2.44065 344.367 2.41016C344.344 2.37967 344.298 2.34156 344.222 2.34156C343.826 2.31869 343.315 2.29583 342.728 2.29583ZM328.147 19.6895C327.56 19.6895 326.958 19.6742 326.333 19.6361C325.639 19.5904 324.991 19.2626 324.557 18.7291C324.115 18.1955 323.917 17.4943 324.008 16.8083C324.359 14.1787 325.67 7.64654 330.365 3.78214C335.06 -0.0822698 341.722 -0.112758 344.374 0.0473057C345.068 0.0930383 345.716 0.420789 346.15 0.954336C346.592 1.48788 346.791 2.18912 346.699 2.8751C346.349 5.50473 345.038 12.0369 340.335 15.9013C338.551 17.3647 334.694 19.6895 328.147 19.6895Z" fill="#6006AE"/>
<path d="M324.709 28.7904C324.069 28.7904 323.558 28.2721 323.558 27.6394V23.5235C323.558 16.3435 317.72 10.5049 310.54 10.5049C309.907 10.5049 309.389 9.98663 309.389 9.354C309.389 8.72137 309.907 8.20306 310.54 8.20306C318.985 8.20306 325.86 15.0782 325.86 23.5235V27.6394C325.86 28.2797 325.35 28.7904 324.709 28.7904Z" fill="#6006AE"/>
</g>
<path opacity="0.72" d="M401.255 2.31963C401.232 2.31963 401.202 2.34252 401.179 2.3883L384.537 37.4498C384.491 37.549 384.529 37.6253 384.545 37.6558C384.575 37.7016 384.598 37.7016 384.606 37.7016L407.825 37.7168C408.55 37.7168 409.229 38.0526 409.687 38.6325C410.167 39.2353 410.335 40.0212 410.16 40.7766L403.346 69.4744C403.315 69.5888 403.354 69.627 403.369 69.6499C403.399 69.688 403.453 69.7033 403.46 69.7033C403.453 69.7033 403.476 69.688 403.498 69.6499L433.989 21.4642C434.05 21.3726 434.012 21.2811 433.997 21.2429C433.966 21.1895 433.936 21.1895 433.928 21.1895H411.442C410.625 21.1895 409.87 20.7698 409.427 20.0678C408.962 19.3353 408.908 18.4273 409.282 17.6414L416.424 2.59432C416.47 2.49513 416.432 2.41882 416.409 2.3883C416.379 2.34252 416.356 2.34252 416.348 2.34252L401.255 2.31963ZM403.46 72C403.155 72 402.842 71.939 402.537 71.8092C401.408 71.3362 400.82 70.1535 401.11 68.9402L407.924 40.2425C407.947 40.1509 407.909 40.0822 407.886 40.0593C407.855 40.0212 407.84 40.0212 407.833 40.0212L384.613 40.0059C383.797 40.0059 383.042 39.5863 382.599 38.8843C382.134 38.1518 382.08 37.2437 382.454 36.4578L399.096 1.38872C399.493 0.549385 400.34 0 401.255 0L416.356 0.0152607C417.172 0.0152607 417.928 0.43493 418.37 1.13692C418.836 1.86944 418.889 2.77745 418.515 3.56337L411.373 18.6104C411.327 18.7096 411.365 18.7859 411.388 18.8164C411.419 18.8622 411.442 18.8622 411.449 18.8622H433.936C434.813 18.8622 435.592 19.3277 436.027 20.1136C436.469 20.9224 436.439 21.8991 435.95 22.6774L405.459 70.8631C405.002 71.6032 404.246 72 403.46 72Z" fill="#6006AE"/>
<g opacity="0.72">
<path d="M504.339 2.28547C485.752 2.28547 470.632 17.4059 470.632 35.9924C470.632 54.5789 485.752 69.6994 504.339 69.6994C522.925 69.6994 538.046 54.5789 538.046 35.9924C538.046 17.4135 522.925 2.28547 504.339 2.28547ZM504.339 72C484.488 72 468.339 55.8503 468.339 36C468.339 16.1497 484.488 0 504.339 0C524.189 0 540.339 16.1497 540.339 36C540.339 55.8503 524.189 72 504.339 72Z" fill="#6006AE"/>
<path d="M486.479 54.9952C486.184 54.9952 485.896 54.8816 485.669 54.6622C485.223 54.2157 485.223 53.4892 485.669 53.0427L521.381 17.3302C521.828 16.8837 522.554 16.8837 523.001 17.3302C523.447 17.7767 523.447 18.5032 523.001 18.9497L487.289 54.6622C487.069 54.8892 486.774 54.9952 486.479 54.9952Z" fill="#6006AE"/>
<path d="M522.191 54.9952C521.896 54.9952 521.609 54.8816 521.381 54.6622L485.669 18.9497C485.223 18.5032 485.223 17.7767 485.669 17.3302C486.116 16.8837 486.842 16.8837 487.289 17.3302L523.001 53.0427C523.447 53.4892 523.447 54.2157 523.001 54.6622C522.781 54.8892 522.486 54.9952 522.191 54.9952Z" fill="#6006AE"/>
</g>
<line x1="550" y1="108" x2="2" y2="108" stroke="url(#paint0_linear)" stroke-width="4" stroke-linecap="round"/>
<defs>
<linearGradient id="paint0_linear" x1="552" y1="106" x2="0" y2="106" gradientUnits="userSpaceOnUse">
<stop stop-color="#6006AE"/>
<stop offset="1" stop-color="#6006AE" stop-opacity="0"/>
</linearGradient>
</defs>
</svg>
