<svg width="627" height="493" viewBox="0 0 627 493" fill="none" xmlns="http://www.w3.org/2000/svg">
<path d="M67 366.583C67 408 85.0651 488 188.294 488C291.523 488 309.588 406.5 309.588 366.583V319M552.383 126.417C552.382 85 534.317 5.00001 431.088 5C327.859 4.99999 309.794 86.5 309.794 126.417V174" stroke="url(#paint0_linear)" stroke-width="10" stroke-linecap="round" stroke-dasharray="24 24"/>
<path opacity="0.5" d="M32.6947 396.818L32.8451 396.764C32.9477 396.729 33.0707 396.661 33.2074 396.552C33.3441 396.442 33.4877 396.319 33.6312 396.169C33.7816 396.025 33.9047 395.827 34.0072 395.574C34.1098 395.314 34.1576 395.034 34.1576 394.727C34.1576 393.988 33.8363 393.346 33.1801 392.806C32.5238 392.266 31.6625 391.999 30.5824 391.999C30.1586 391.999 29.7416 392.047 29.3314 392.156C28.9281 392.266 28.6 392.382 28.3539 392.505C28.1078 392.628 27.8686 392.778 27.6498 392.956C27.4311 393.127 27.2943 393.243 27.226 393.312C27.1576 393.38 27.1098 393.428 27.0824 393.469L28.3471 394.795L28.6 394.556C28.7572 394.405 29.0033 394.262 29.3383 394.111C29.6801 393.961 30.0219 393.886 30.3773 393.886C30.8695 393.886 31.2523 393.981 31.5189 394.187C31.7855 394.385 31.9154 394.638 31.9154 394.938C31.9154 395.239 31.7924 395.492 31.5395 395.69C31.2865 395.882 30.9242 395.984 30.4457 395.984H29.2562V397.81H30.5141C31.0951 397.81 31.5326 397.926 31.8266 398.165C32.1205 398.397 32.2641 398.698 32.2641 399.067C32.2641 399.423 32.1068 399.717 31.7924 399.963C31.4779 400.202 31.0268 400.325 30.4457 400.325C30.1586 400.325 29.8715 400.284 29.598 400.209C29.3246 400.134 29.099 400.052 28.9213 399.963C28.7436 399.867 28.5795 399.765 28.4154 399.642C28.2582 399.519 28.1557 399.43 28.1078 399.389L27.9984 399.279L26.7338 400.537L26.891 400.722C26.9936 400.831 27.1576 400.968 27.3764 401.132C27.5951 401.296 27.848 401.46 28.1352 401.624C28.4223 401.788 28.7914 401.925 29.2289 402.041C29.6664 402.157 30.1176 402.219 30.5824 402.219C31.7992 402.219 32.7631 401.932 33.4604 401.364C34.1576 400.79 34.5062 400.1 34.5062 399.279C34.5062 398.931 34.4447 398.609 34.308 398.309C34.1781 398.008 34.0346 397.775 33.8773 397.604C33.7201 397.44 33.5355 397.29 33.3236 397.153C33.1186 397.017 32.9682 396.935 32.8861 396.9C32.8041 396.866 32.7357 396.839 32.6947 396.818ZM36.6103 400.113V404.03H38.709V402H44.5879V404.03H46.6934V400.113H45.4971V392.197H38.709V395.212C38.709 395.868 38.6475 396.483 38.5381 397.064C38.4287 397.652 38.3057 398.11 38.1689 398.452C38.0322 398.794 37.8818 399.108 37.7041 399.396C37.5264 399.683 37.3965 399.86 37.3281 399.942C37.2598 400.024 37.2051 400.079 37.1709 400.113H36.6103ZM40.8076 395.212V394.091H43.3984V400.113H39.2695L39.4404 399.942C39.5361 399.833 39.666 399.642 39.8164 399.382C39.9668 399.122 40.1103 398.814 40.2607 398.459C40.4111 398.104 40.5342 397.639 40.6436 397.058C40.7529 396.483 40.8076 395.868 40.8076 395.212ZM51.3131 397.105C51.3131 396.203 51.6139 395.438 52.2291 394.815C52.8375 394.193 53.5826 393.879 54.4576 393.879C55.3326 393.879 56.0777 394.193 56.6861 394.815C57.3014 395.438 57.6021 396.203 57.6021 397.105C57.6021 398.008 57.3014 398.773 56.6861 399.389C56.0777 400.011 55.3326 400.318 54.4576 400.318C53.5826 400.318 52.8375 400.011 52.2291 399.389C51.6139 398.773 51.3131 398.008 51.3131 397.105ZM49.1393 397.099C49.1393 398.507 49.652 399.717 50.6773 400.715C51.7027 401.713 52.9674 402.212 54.4576 402.212C55.9478 402.212 57.2125 401.713 58.2379 400.715C59.2633 399.717 59.776 398.507 59.776 397.099C59.776 395.69 59.2633 394.487 58.2379 393.489C57.2125 392.491 55.9478 391.992 54.4576 391.992C52.9674 391.992 51.7027 392.491 50.6773 393.489C49.652 394.487 49.1393 395.69 49.1393 397.099ZM63.1447 392.197V402H65.2502V398.78H67.2736C68.2854 398.78 69.1193 398.466 69.7824 397.837C70.4387 397.208 70.7736 396.422 70.7736 395.492C70.7736 394.562 70.4387 393.776 69.7756 393.147C69.1125 392.519 68.2785 392.204 67.2736 392.204L63.1447 392.197ZM67.2053 394.098C67.6223 394.098 67.9709 394.228 68.2512 394.501C68.5314 394.774 68.675 395.103 68.675 395.499C68.675 395.889 68.5314 396.217 68.2512 396.49C67.9709 396.757 67.6223 396.894 67.2053 396.894H65.2502V394.098H67.2053ZM75.6736 397.105C75.6736 396.203 75.9744 395.438 76.5896 394.815C77.198 394.193 77.9432 393.879 78.8182 393.879C79.6932 393.879 80.4383 394.193 81.0467 394.815C81.6619 395.438 81.9627 396.203 81.9627 397.105C81.9627 398.008 81.6619 398.773 81.0467 399.389C80.4383 400.011 79.6932 400.318 78.8182 400.318C77.9432 400.318 77.198 400.011 76.5896 399.389C75.9744 398.773 75.6736 398.008 75.6736 397.105ZM73.4998 397.099C73.4998 398.507 74.0125 399.717 75.0379 400.715C76.0633 401.713 77.3279 402.212 78.8182 402.212C80.3084 402.212 81.573 401.713 82.5984 400.715C83.6238 399.717 84.1365 398.507 84.1365 397.099C84.1365 395.69 83.6238 394.487 82.5984 393.489C81.573 392.491 80.3084 391.992 78.8182 391.992C77.3279 391.992 76.0633 392.491 75.0379 393.489C74.0125 394.487 73.4998 395.69 73.4998 397.099ZM91.9486 402C92.9193 402 93.7123 401.72 94.3412 401.152C94.9633 400.592 95.2777 399.915 95.2777 399.129C95.2777 398.814 95.2162 398.521 95.1 398.247C94.9838 397.974 94.8539 397.755 94.7172 397.591C94.5736 397.434 94.4096 397.29 94.225 397.153C94.0336 397.017 93.9037 396.935 93.8354 396.9C93.767 396.866 93.7055 396.839 93.6645 396.818L93.7807 396.75C93.849 396.709 93.9447 396.627 94.0541 396.518C94.1635 396.408 94.2797 396.271 94.3959 396.114C94.5053 395.964 94.601 395.766 94.6762 395.533C94.7445 395.301 94.7855 395.048 94.7855 394.788C94.7855 394.104 94.4916 393.496 93.9105 392.977C93.3295 392.457 92.598 392.197 91.7094 392.197H87.5053V402H91.9486ZM89.6107 400.25V397.728H91.8461C92.2289 397.728 92.5434 397.851 92.7963 398.097C93.0492 398.343 93.1791 398.637 93.1791 398.992C93.1791 399.348 93.0492 399.648 92.7963 399.888C92.5434 400.134 92.2289 400.25 91.8461 400.25H89.6107ZM91.5658 393.947C91.9076 393.947 92.1811 394.043 92.3861 394.234C92.5844 394.426 92.6869 394.686 92.6869 395C92.6869 395.321 92.5844 395.574 92.3861 395.766C92.1811 395.957 91.9076 396.053 91.5658 396.053H89.6107V393.947H91.5658ZM102.769 402C103.773 402 104.607 401.686 105.271 401.057C105.934 400.428 106.269 399.648 106.269 398.712C106.269 397.782 105.934 396.996 105.271 396.367C104.607 395.738 103.773 395.417 102.769 395.417H100.745V392.197H98.6396V402H102.769ZM100.745 400.113V397.311H102.7C103.117 397.311 103.466 397.447 103.746 397.721C104.026 397.994 104.17 398.322 104.17 398.712C104.17 399.108 104.026 399.437 103.746 399.71C103.466 399.983 103.117 400.113 102.7 400.113H100.745ZM111.661 400.113V397.939H115.646V396.053H111.661V394.091H116.767V392.197H109.555V402H116.911V400.113H111.661Z" fill="white"/>
<rect y="222" width="144" height="144" rx="24" fill="#6006AE"/>
<path d="M76.9295 333.981C76.6209 333.981 76.3123 333.961 75.9935 333.919C72.846 333.498 70.511 331.101 70.1819 327.933L63.3314 261.506C63.3211 261.372 63.2903 261.115 62.8994 261.053C62.5085 260.992 62.416 261.228 62.3542 261.352L49.219 291.191C48.067 293.804 45.4852 295.481 42.636 295.481H42.6051L26.0961 295.409C24.3784 295.409 22.9898 294.01 23.0001 292.292C23.0103 290.574 24.399 289.196 26.1064 289.196H26.1167L42.636 289.268C43.0166 289.268 43.3663 289.042 43.5206 288.692L56.6661 258.842C57.9107 256.003 60.8113 254.419 63.8766 254.902C66.9418 255.386 69.2047 257.783 69.5236 260.858L76.374 327.295C76.3843 327.439 76.4152 327.696 76.8163 327.748C77.2175 327.799 77.3101 327.552 77.3615 327.429L90.147 294.102C91.1962 291.356 93.7677 289.556 96.7094 289.484L116.603 289.186C118.31 289.165 119.729 290.533 119.76 292.251C119.791 293.969 118.413 295.378 116.695 295.409L96.8226 295.707C96.442 295.717 96.1026 295.954 95.9586 296.324L83.1731 329.651C82.1342 332.325 79.6964 333.981 76.9295 333.981Z" fill="white"/>
<path opacity="0.5" d="M270.369 343.992C268.871 343.992 267.607 344.491 266.581 345.489C265.556 346.487 265.043 347.69 265.043 349.099C265.043 350.507 265.556 351.717 266.581 352.715C267.607 353.713 268.871 354.212 270.369 354.212C270.874 354.212 271.367 354.144 271.845 354C272.324 353.863 272.706 353.706 273 353.535C273.294 353.364 273.568 353.166 273.828 352.94C274.087 352.715 274.251 352.558 274.327 352.469C274.402 352.38 274.456 352.305 274.497 352.25L273.233 350.917L273.123 351.061C273.048 351.163 272.932 351.279 272.768 351.416C272.604 351.553 272.412 351.689 272.201 351.826C271.982 351.963 271.715 352.079 271.387 352.175C271.059 352.271 270.724 352.318 270.369 352.318C269.453 352.318 268.687 352.011 268.072 351.396C267.456 350.78 267.149 350.015 267.149 349.099C267.149 348.183 267.456 347.417 268.072 346.802C268.687 346.187 269.453 345.879 270.369 345.879C270.697 345.879 271.025 345.934 271.346 346.036C271.661 346.139 271.92 346.248 272.119 346.371C272.31 346.494 272.495 346.631 272.659 346.788C272.823 346.952 272.932 347.062 272.98 347.13C273.028 347.198 273.069 347.246 273.096 347.28L274.429 345.947L274.272 345.742C274.169 345.612 274.005 345.448 273.773 345.257C273.54 345.065 273.281 344.874 272.98 344.683C272.679 344.491 272.303 344.334 271.838 344.197C271.373 344.061 270.881 343.992 270.369 343.992ZM278.898 349.105C278.898 348.203 279.199 347.438 279.814 346.815C280.423 346.193 281.168 345.879 282.043 345.879C282.918 345.879 283.663 346.193 284.271 346.815C284.887 347.438 285.187 348.203 285.187 349.105C285.187 350.008 284.887 350.773 284.271 351.389C283.663 352.011 282.918 352.318 282.043 352.318C281.168 352.318 280.423 352.011 279.814 351.389C279.199 350.773 278.898 350.008 278.898 349.105ZM276.725 349.099C276.725 350.507 277.237 351.717 278.263 352.715C279.288 353.713 280.553 354.212 282.043 354.212C283.533 354.212 284.798 353.713 285.823 352.715C286.849 351.717 287.361 350.507 287.361 349.099C287.361 347.69 286.849 346.487 285.823 345.489C284.798 344.491 283.533 343.992 282.043 343.992C280.553 343.992 279.288 344.491 278.263 345.489C277.237 346.487 276.725 347.69 276.725 349.099ZM295.488 348.818L295.638 348.764C295.741 348.729 295.864 348.661 296.001 348.552C296.137 348.442 296.281 348.319 296.424 348.169C296.575 348.025 296.698 347.827 296.8 347.574C296.903 347.314 296.951 347.034 296.951 346.727C296.951 345.988 296.629 345.346 295.973 344.806C295.317 344.266 294.456 343.999 293.376 343.999C292.952 343.999 292.535 344.047 292.125 344.156C291.721 344.266 291.393 344.382 291.147 344.505C290.901 344.628 290.662 344.778 290.443 344.956C290.224 345.127 290.087 345.243 290.019 345.312C289.951 345.38 289.903 345.428 289.876 345.469L291.14 346.795L291.393 346.556C291.55 346.405 291.796 346.262 292.131 346.111C292.473 345.961 292.815 345.886 293.171 345.886C293.663 345.886 294.046 345.981 294.312 346.187C294.579 346.385 294.709 346.638 294.709 346.938C294.709 347.239 294.586 347.492 294.333 347.69C294.08 347.882 293.717 347.984 293.239 347.984H292.049V349.81H293.307C293.888 349.81 294.326 349.926 294.62 350.165C294.914 350.397 295.057 350.698 295.057 351.067C295.057 351.423 294.9 351.717 294.586 351.963C294.271 352.202 293.82 352.325 293.239 352.325C292.952 352.325 292.665 352.284 292.391 352.209C292.118 352.134 291.892 352.052 291.714 351.963C291.537 351.867 291.373 351.765 291.209 351.642C291.051 351.519 290.949 351.43 290.901 351.389L290.792 351.279L289.527 352.537L289.684 352.722C289.787 352.831 289.951 352.968 290.17 353.132C290.388 353.296 290.641 353.46 290.928 353.624C291.215 353.788 291.585 353.925 292.022 354.041C292.46 354.157 292.911 354.219 293.376 354.219C294.592 354.219 295.556 353.932 296.254 353.364C296.951 352.79 297.299 352.1 297.299 351.279C297.299 350.931 297.238 350.609 297.101 350.309C296.971 350.008 296.828 349.775 296.671 349.604C296.513 349.44 296.329 349.29 296.117 349.153C295.912 349.017 295.761 348.935 295.679 348.9C295.597 348.866 295.529 348.839 295.488 348.818ZM309.063 344.197H306.964V348.121H302.767V344.197H300.661V354H302.767V350.008H306.964V354H309.063V344.197ZM318.03 349.871H315.644L316.841 346.651L318.03 349.871ZM318.727 351.689L319.568 354H321.81L317.955 344.197H315.72L311.864 354H314.106L314.947 351.689H318.727ZM333.013 344.197H330.914V348.121H326.717V344.197H324.612V354H326.717V350.008H330.914V354H333.013V344.197ZM345.686 354V344.197H343.867L339.041 350.432V344.197H336.936V354H338.761L343.587 347.772V354H345.686ZM351.707 352.113V349.939H355.692V348.053H351.707V346.091H356.813V344.197H349.601V354H356.957V352.113H351.707Z" fill="white"/>
<rect x="239" y="174" width="144" height="144" rx="24" fill="#1F0949"/>
<path d="M320.884 275.448C315.704 275.448 310.534 274.785 305.731 273.552C297.308 271.38 290.935 266.587 288.243 260.408C286.265 255.871 286.489 250.936 288.885 246.51C293.515 237.935 306.527 233.653 318.508 236.742C320.16 237.17 321.149 238.853 320.721 240.495C320.293 242.146 318.61 243.135 316.969 242.707C307.913 240.372 297.543 243.452 294.31 249.437C292.822 252.2 292.679 255.147 293.892 257.941C295.799 262.305 300.796 265.904 307.271 267.576C315.337 269.657 324.382 269.83 332.101 268.056C338.067 266.679 346.102 263.498 350.558 256.085C353.199 251.69 353.566 246.847 351.609 242.075C348.478 234.428 340.075 228.177 329.134 225.353C317.274 222.294 304.406 222.6 292.893 226.24C281.605 229.798 273.049 236.1 268.797 243.972C267.991 245.47 266.115 246.031 264.616 245.216C263.117 244.41 262.556 242.534 263.372 241.035C268.389 231.746 278.209 224.404 291.037 220.356C303.631 216.38 317.713 216.033 330.674 219.388C343.492 222.691 353.444 230.308 357.309 239.74C359.991 246.286 359.46 253.22 355.84 259.256C349.049 270.574 334.956 275.448 320.884 275.448Z" fill="white"/>
<rect x="479" y="126" width="144" height="144" rx="24" fill="#1F0949"/>
<path opacity="0.5" d="M479.778 295.992C479.258 295.992 478.766 296.067 478.301 296.204C477.836 296.341 477.454 296.498 477.166 296.669C476.879 296.847 476.606 297.045 476.36 297.264C476.107 297.489 475.943 297.646 475.874 297.735C475.806 297.824 475.751 297.893 475.717 297.947L477.043 299.28L477.16 299.137C477.221 299.041 477.33 298.925 477.488 298.788C477.638 298.651 477.823 298.515 478.028 298.378C478.233 298.241 478.486 298.125 478.8 298.029C479.115 297.934 479.436 297.879 479.778 297.879C480.543 297.879 481.2 298.098 481.746 298.528C482.293 298.959 482.662 299.492 482.854 300.121H478.513V302.008H482.854C482.662 302.685 482.307 303.238 481.774 303.669C481.241 304.106 480.578 304.318 479.778 304.318C479.422 304.318 479.074 304.271 478.746 304.168C478.411 304.065 478.144 303.956 477.946 303.833C477.741 303.71 477.549 303.573 477.371 303.409C477.187 303.252 477.071 303.143 477.023 303.074C476.968 303.006 476.934 302.958 476.907 302.917L475.642 304.25L475.813 304.462C475.915 304.592 476.086 304.749 476.319 304.94C476.551 305.132 476.818 305.323 477.125 305.515C477.433 305.706 477.823 305.87 478.294 306.007C478.766 306.144 479.258 306.212 479.778 306.212C481.268 306.212 482.526 305.713 483.551 304.715C484.577 303.717 485.096 302.507 485.096 301.099C485.096 299.69 484.583 298.487 483.565 297.489C482.539 296.491 481.282 295.992 479.778 295.992ZM489.853 300.962C489.853 300.326 490.064 299.8 490.495 299.39C490.919 298.979 491.5 298.761 492.231 298.72V303.197C491.507 303.163 490.926 302.938 490.495 302.527C490.064 302.117 489.853 301.598 489.853 300.962ZM494.33 305.022C495.636 304.988 496.709 304.578 497.55 303.792C498.391 303.006 498.814 302.062 498.814 300.962C498.814 299.861 498.391 298.918 497.55 298.132C496.709 297.353 495.636 296.942 494.33 296.901V295.849H492.231V296.901C490.926 296.942 489.853 297.353 489.012 298.132C488.171 298.918 487.754 299.861 487.754 300.962C487.754 302.062 488.171 303.006 489.012 303.792C489.846 304.578 490.919 304.988 492.231 305.022V306.28H494.33V305.022ZM496.716 300.962C496.716 301.598 496.497 302.117 496.066 302.527C495.636 302.938 495.055 303.163 494.33 303.197V298.72C495.055 298.761 495.636 298.979 496.066 299.39C496.497 299.8 496.716 300.326 496.716 300.962ZM503.434 300.962C503.434 300.326 503.646 299.8 504.077 299.39C504.501 298.979 505.082 298.761 505.813 298.72V303.197C505.088 303.163 504.507 302.938 504.077 302.527C503.646 302.117 503.434 301.598 503.434 300.962ZM507.912 305.022C509.217 304.988 510.291 304.578 511.131 303.792C511.972 303.006 512.396 302.062 512.396 300.962C512.396 299.861 511.972 298.918 511.131 298.132C510.291 297.353 509.217 296.942 507.912 296.901V295.849H505.813V296.901C504.507 296.942 503.434 297.353 502.593 298.132C501.753 298.918 501.336 299.861 501.336 300.962C501.336 302.062 501.753 303.006 502.593 303.792C503.427 304.578 504.501 304.988 505.813 305.022V306.28H507.912V305.022ZM510.297 300.962C510.297 301.598 510.079 302.117 509.648 302.527C509.217 302.938 508.636 303.163 507.912 303.197V298.72C508.636 298.761 509.217 298.979 509.648 299.39C510.079 299.8 510.297 300.326 510.297 300.962ZM517.72 304.113V301.939H521.705V300.053H517.72V298.091H522.826V296.197H515.614V306H522.97V304.113H517.72ZM528.43 296.197H526.325V306H528.43V303.197L529.688 301.803L532.559 306H535.007L531.09 300.258L534.726 296.197H532.279L528.43 300.47V296.197ZM536.687 296.197V298.091H539.49V306H541.588V298.091H544.384V296.197H536.687ZM556.072 306V296.197H554.254L549.428 302.432V296.197H547.322V306H549.147L553.974 299.772V306H556.072ZM564.431 306C565.402 306 566.195 305.72 566.824 305.152C567.446 304.592 567.76 303.915 567.76 303.129C567.76 302.814 567.699 302.521 567.583 302.247C567.466 301.974 567.337 301.755 567.2 301.591C567.056 301.434 566.892 301.29 566.708 301.153C566.516 301.017 566.386 300.935 566.318 300.9C566.25 300.866 566.188 300.839 566.147 300.818L566.263 300.75C566.332 300.709 566.427 300.627 566.537 300.518C566.646 300.408 566.762 300.271 566.879 300.114C566.988 299.964 567.084 299.766 567.159 299.533C567.227 299.301 567.268 299.048 567.268 298.788C567.268 298.104 566.974 297.496 566.393 296.977C565.812 296.457 565.081 296.197 564.192 296.197H559.988V306H564.431ZM562.093 304.25V301.728H564.329C564.712 301.728 565.026 301.851 565.279 302.097C565.532 302.343 565.662 302.637 565.662 302.992C565.662 303.348 565.532 303.648 565.279 303.888C565.026 304.134 564.712 304.25 564.329 304.25H562.093ZM564.048 297.947C564.39 297.947 564.664 298.043 564.869 298.234C565.067 298.426 565.17 298.686 565.17 299C565.17 299.321 565.067 299.574 564.869 299.766C564.664 299.957 564.39 300.053 564.048 300.053H562.093V297.947H564.048ZM579.524 296.197H577.425V300.121H573.228V296.197H571.122V306H573.228V302.008H577.425V306H579.524V296.197ZM585.059 301.105C585.059 300.203 585.36 299.438 585.975 298.815C586.584 298.193 587.329 297.879 588.204 297.879C589.079 297.879 589.824 298.193 590.432 298.815C591.048 299.438 591.348 300.203 591.348 301.105C591.348 302.008 591.048 302.773 590.432 303.389C589.824 304.011 589.079 304.318 588.204 304.318C587.329 304.318 586.584 304.011 585.975 303.389C585.36 302.773 585.059 302.008 585.059 301.105ZM582.886 301.099C582.886 302.507 583.398 303.717 584.424 304.715C585.449 305.713 586.714 306.212 588.204 306.212C589.694 306.212 590.959 305.713 591.984 304.715C593.01 303.717 593.522 302.507 593.522 301.099C593.522 299.69 593.01 298.487 591.984 297.489C590.959 296.491 589.694 295.992 588.204 295.992C586.714 295.992 585.449 296.491 584.424 297.489C583.398 298.487 582.886 299.69 582.886 301.099ZM601.656 295.992C600.159 295.992 598.894 296.491 597.869 297.489C596.843 298.487 596.33 299.69 596.33 301.099C596.33 302.507 596.843 303.717 597.869 304.715C598.894 305.713 600.159 306.212 601.656 306.212C602.162 306.212 602.654 306.144 603.132 306C603.611 305.863 603.994 305.706 604.287 305.535C604.581 305.364 604.855 305.166 605.115 304.94C605.374 304.715 605.538 304.558 605.614 304.469C605.689 304.38 605.744 304.305 605.785 304.25L604.52 302.917L604.411 303.061C604.335 303.163 604.219 303.279 604.055 303.416C603.891 303.553 603.7 303.689 603.488 303.826C603.269 303.963 603.002 304.079 602.674 304.175C602.346 304.271 602.011 304.318 601.656 304.318C600.74 304.318 599.974 304.011 599.359 303.396C598.744 302.78 598.436 302.015 598.436 301.099C598.436 300.183 598.744 299.417 599.359 298.802C599.974 298.187 600.74 297.879 601.656 297.879C601.984 297.879 602.312 297.934 602.633 298.036C602.948 298.139 603.207 298.248 603.406 298.371C603.597 298.494 603.782 298.631 603.946 298.788C604.11 298.952 604.219 299.062 604.267 299.13C604.315 299.198 604.356 299.246 604.383 299.28L605.716 297.947L605.559 297.742C605.456 297.612 605.292 297.448 605.06 297.257C604.828 297.065 604.568 296.874 604.267 296.683C603.966 296.491 603.59 296.334 603.125 296.197C602.661 296.061 602.168 295.992 601.656 295.992ZM607.882 296.197V298.091H610.685V306H612.783V298.091H615.579V296.197H607.882ZM622.646 306C623.651 306 624.485 305.686 625.148 305.057C625.811 304.428 626.146 303.648 626.146 302.712C626.146 301.782 625.811 300.996 625.148 300.367C624.485 299.738 623.651 299.417 622.646 299.417H620.623V296.197H618.517V306H622.646ZM620.623 304.113V301.311H622.578C622.995 301.311 623.343 301.447 623.624 301.721C623.904 301.994 624.047 302.322 624.047 302.712C624.047 303.108 623.904 303.437 623.624 303.71C623.343 303.983 622.995 304.113 622.578 304.113H620.623Z" fill="white"/>
<g clip-path="url(#clip0)">
<path d="M550.62 155.773C550.102 155.773 548.344 155.925 547.632 157.856L539.218 180.69C538.273 183.261 536.261 185.273 533.69 186.218L510.856 194.632C508.925 195.344 508.773 197.102 508.773 197.62C508.773 198.138 508.925 199.896 510.856 200.608L533.69 209.022C536.261 209.967 538.273 211.979 539.218 214.55L547.632 237.384C548.344 239.314 550.102 239.467 550.62 239.467C551.138 239.467 552.896 239.314 553.608 237.384L562.022 214.55C562.967 211.979 564.979 209.967 567.55 209.022L590.384 200.608C592.314 199.896 592.467 198.138 592.467 197.62C592.467 197.102 592.314 195.344 590.384 194.632L567.56 186.218C564.989 185.273 562.977 183.261 562.032 180.69L553.608 157.856C552.896 155.925 551.148 155.773 550.62 155.773ZM550.62 245.625C546.667 245.625 543.232 243.227 541.86 239.518L533.446 216.684C533.121 215.81 532.43 215.119 531.556 214.794L508.732 206.38C505.023 205.018 502.625 201.573 502.625 197.62C502.625 193.667 505.023 190.232 508.732 188.86L531.566 180.446C532.44 180.121 533.131 179.44 533.456 178.556L541.87 155.722C543.232 152.023 546.667 149.625 550.62 149.625C554.573 149.625 558.008 152.023 559.38 155.732L567.794 178.566C568.119 179.44 568.81 180.131 569.684 180.456L592.518 188.87C596.227 190.242 598.625 193.677 598.625 197.63C598.625 201.583 596.227 205.018 592.518 206.39L569.684 214.804C568.81 215.129 568.119 215.81 567.794 216.694L559.38 239.528C558.018 243.227 554.573 245.625 550.62 245.625Z" fill="white"/>
</g>
<defs>
<linearGradient id="paint0_linear" x1="67" y1="301.5" x2="552" y2="301.5" gradientUnits="userSpaceOnUse">
<stop stop-color="#6006AE"/>
<stop offset="1" stop-color="#1F0949"/>
</linearGradient>
<clipPath id="clip0">
<rect x="502.625" y="149.625" width="96" height="96" rx="24" fill="white"/>
</clipPath>
</defs>
</svg>
