<svg width="132" height="48" viewBox="0 0 132 48" fill="none" xmlns="http://www.w3.org/2000/svg">
<path d="M39.5718 48H8.43C3.77471 48 0 44.2252 0 39.5701V8.42813C0 3.77303 3.77471 0 8.43 0H39.5718C44.2271 0 48 3.77303 48 8.42813V39.5701C48 44.2252 44.2271 48 39.5718 48Z" fill="#0F0A30"/>
<path d="M39.6124 41.7498H27.1412C25.9694 41.7498 25.0182 40.799 25.0182 39.6264V27.1559C25.0182 25.9833 25.9694 25.0326 27.1412 25.0326H39.6124C40.7841 25.0326 41.7353 25.9833 41.7353 27.1559V39.6264C41.7353 40.8008 40.7859 41.7498 39.6124 41.7498Z" fill="#1A25E0"/>
<path d="M20.8165 41.7498H8.34706C7.17353 41.7498 6.22412 40.799 6.22412 39.6264V27.1559C6.22412 25.9833 7.1753 25.0326 8.34706 25.0326H20.8165C21.9882 25.0326 22.9394 25.9833 22.9394 27.1559V39.6264C22.9412 40.8008 21.99 41.7498 20.8165 41.7498Z" fill="white"/>
<path d="M27.0388 22.955H8.34706C7.17353 22.955 6.22412 22.0043 6.22412 20.8317V8.36294C6.22412 7.19036 7.1753 6.23962 8.34706 6.23962H27.0388C28.2106 6.23962 29.1618 7.19036 29.1618 8.36294V20.8317C29.1635 22.0043 28.2124 22.955 27.0388 22.955Z" fill="#85C598"/>
<path d="M39.6123 22.955H33.4182C32.2447 22.955 31.2953 22.0043 31.2953 20.8317V8.36294C31.2953 7.19036 32.2465 6.23962 33.4182 6.23962H39.6123C40.7841 6.23962 41.7353 7.19036 41.7353 8.36294V20.8317C41.7353 22.0043 40.7859 22.955 39.6123 22.955Z" fill="#6006AE"/>
<path d="M13.1347 34.1756V35.6334C13.1347 36.438 13.7894 37.093 14.5941 37.093C15.3988 37.093 16.0535 36.438 16.0535 35.6334C16.0535 34.8288 15.3988 34.1756 14.5941 34.1756H13.1347ZM14.5941 39.586C12.4147 39.586 10.6412 37.8131 10.6412 35.6334V28.4448C10.6412 27.7564 11.1988 27.1982 11.8888 27.1982C12.5771 27.1982 13.1365 27.7564 13.1365 28.4448V31.6826H14.5959C16.7753 31.6826 18.5488 33.4555 18.5488 35.6352C18.5453 37.8131 16.7735 39.586 14.5941 39.586Z" fill="#0F0A30"/>
<path d="M19.5812 19.2701C18.6071 19.2701 17.6224 19.168 16.703 18.9655C14.9965 18.5905 14.0241 17.6768 13.6853 16.9479C13.3818 16.2964 13.4135 15.5834 13.7771 14.8879C14.5906 13.3333 17.2853 12.9688 19.4065 13.416C19.7506 13.4882 19.9712 13.8263 19.8988 14.1696C19.8265 14.5147 19.4877 14.7347 19.1435 14.6626C17.2818 14.2699 15.3424 14.645 14.9047 15.4795C14.7247 15.8246 14.7035 16.1204 14.8394 16.4109C15.1006 16.9707 15.96 17.4989 16.9765 17.7225C18.4977 18.0571 20.2183 18.0887 21.6988 17.807C23.7406 17.4197 24.7147 16.5975 25.1718 15.9742C25.5777 15.4214 25.6694 14.8421 25.4435 14.2488C24.9847 13.0428 23.2941 11.9723 21.1394 11.5181C18.8824 11.0427 16.433 11.092 14.2412 11.6554C12.1412 12.1959 10.4894 13.1819 9.71119 14.3597C9.51708 14.6538 9.12178 14.733 8.82884 14.5393C8.5359 14.3456 8.45472 13.9495 8.64884 13.6572C9.61413 12.1994 11.4883 11.0497 13.9253 10.423C16.3024 9.81203 18.9583 9.75745 21.4041 10.2733C24.0512 10.8314 26.0065 12.1484 26.6365 13.7981C27.0159 14.7928 26.8606 15.8351 26.2006 16.7331C25.35 17.888 23.8765 18.6944 21.9388 19.0606C21.1924 19.1997 20.3912 19.2701 19.5812 19.2701Z" fill="white"/>
<path d="M33.3777 28.6771C33.3194 28.6771 33.24 28.6982 33.203 28.7986L32.2447 31.3973C32.0965 31.7987 31.7824 32.1139 31.38 32.2617L28.7824 33.2195C28.6818 33.2565 28.6606 33.334 28.6606 33.3938C28.6606 33.4519 28.6818 33.5312 28.7824 33.5681L31.38 34.5259C31.7806 34.6738 32.0965 34.989 32.2447 35.3904L33.203 37.9891C33.24 38.0894 33.3177 38.1106 33.3777 38.1106C33.4359 38.1106 33.5135 38.0894 33.5506 37.9891L34.5088 35.3904C34.6571 34.989 34.9712 34.6738 35.3735 34.5259L37.9712 33.5681C38.0718 33.5312 38.093 33.4537 38.093 33.3938C38.093 33.334 38.0718 33.2565 37.9712 33.2195L35.3735 32.2617C34.973 32.1139 34.6571 31.7987 34.5088 31.3973L33.5506 28.7986C33.5135 28.6982 33.4359 28.6771 33.3777 28.6771ZM33.3777 39.3817C32.76 39.3817 32.2218 39.0067 32.0082 38.4275L31.05 35.8288C31.0306 35.7777 30.9918 35.7372 30.9406 35.7196L28.343 34.7618C27.7624 34.5488 27.3882 34.0101 27.3882 33.3938C27.3882 32.7759 27.7624 32.2389 28.343 32.0241L30.9406 31.0663C30.9918 31.0469 31.0324 31.0082 31.05 30.9571L32.0082 28.3584C32.2218 27.7792 32.76 27.4042 33.3777 27.4042C33.9953 27.4042 34.5335 27.7792 34.7471 28.3584L35.7053 30.9571C35.7247 31.0082 35.7635 31.0487 35.8147 31.0663L38.4124 32.0241C38.993 32.2371 39.3671 32.7759 39.3671 33.3938C39.3671 34.0118 38.993 34.5488 38.4124 34.7618L35.8147 35.7196C35.7635 35.739 35.723 35.7777 35.7053 35.8288L34.7471 38.4275C34.5318 39.0067 33.9953 39.3817 33.3777 39.3817Z" fill="white"/>
<path d="M36.7659 19.6433C36.7182 19.6433 36.6724 19.6398 36.6229 19.631C36.1888 19.5606 35.8729 19.1715 35.8729 18.7067V12.3561C35.8729 12.3332 35.8429 12.3279 35.8341 12.3491L35.0559 14.1977C34.9147 14.534 34.5971 14.7506 34.2459 14.7506H33.4006C33.0688 14.7506 32.7794 14.5005 32.7565 14.1695C32.7335 13.8069 33.0212 13.504 33.3794 13.504H33.8647C33.9424 13.504 34.0129 13.4565 34.0429 13.3861L35.4229 10.1078C35.5906 9.70988 35.9912 9.48804 36.3988 9.57079C36.8224 9.6553 37.1188 10.0338 37.1188 10.4881V16.3985C37.1188 16.4214 37.1506 16.4267 37.1594 16.4055L37.9271 14.1255C38.0524 13.754 38.3876 13.5058 38.7618 13.5058H39.6265C39.9582 13.5058 40.2476 13.7558 40.2706 14.0868C40.2935 14.4495 40.0059 14.7523 39.6494 14.7523H39.1729C39.09 14.7523 39.0159 14.8051 38.9894 14.8844L37.5953 19.0254C37.4665 19.4021 37.1365 19.6433 36.7659 19.6433Z" fill="white"/>
<g clip-path="url(#clip0)">
<path d="M65.3674 18.5374C64.1355 18.5374 63.1341 17.536 63.1341 16.304V14.0726H65.3674C66.5993 14.0726 67.6008 15.074 67.6008 16.306C67.6008 17.536 66.5993 18.5374 65.3674 18.5374ZM65.3674 10.9366H63.136V7.00453C63.136 6.13869 62.4329 5.4375 61.567 5.4375C60.7012 5.4375 60 6.13869 60 7.00453V16.304C60 19.2638 62.4077 21.6714 65.3674 21.6714C68.3271 21.6714 70.7348 19.2638 70.7348 16.304C70.7348 13.3443 68.3271 10.9366 65.3674 10.9366Z" fill="white"/>
<path d="M67.6008 33.8145H65.3674C64.1355 33.8145 63.1341 32.8131 63.1341 31.5812C63.1341 30.3492 64.1355 29.3478 65.3674 29.3478C66.5993 29.3478 67.6008 30.3492 67.6008 31.5812V33.8145ZM65.3674 26.2137C62.4077 26.2137 60 28.6234 60 31.5831C60 34.5428 62.4077 36.9505 65.3674 36.9505H69.1678C70.0336 36.9505 70.7348 36.2493 70.7348 35.3835V31.5831C70.7348 28.6234 68.3271 26.2137 65.3674 26.2137Z" fill="#1A25E0"/>
<path d="M118.542 10.9366H117.32C114.819 10.9366 112.785 12.9705 112.785 15.4731V20.1064C112.785 20.9722 113.486 21.6734 114.352 21.6734C115.218 21.6734 115.919 20.9722 115.919 20.1064V15.4731C115.919 14.7002 116.547 14.0726 117.32 14.0726H118.542C119.408 14.0726 120.109 13.3714 120.109 12.5056C120.109 11.6378 119.408 10.9366 118.542 10.9366Z" fill="white"/>
<path d="M97.6823 10.9366H94.833V7.00453C94.833 6.13869 94.1318 5.4375 93.266 5.4375C92.4001 5.4375 91.6989 6.13869 91.6989 7.00453V10.9366H87.3291V7.00453C87.3291 6.13869 86.6279 5.4375 85.762 5.4375C84.8962 5.4375 84.195 6.13869 84.195 7.00453V16.3408C84.195 19.3006 86.6027 21.7082 89.5624 21.7082C90.4283 21.7082 91.1294 21.0071 91.1294 20.1412C91.1294 19.2754 90.4283 18.5742 89.5624 18.5742C88.3324 18.5742 87.3291 17.5728 87.3291 16.3408V14.0726H91.6989V16.3428C91.6989 19.3025 94.1066 21.7102 97.0663 21.7102C97.9322 21.7102 98.6334 21.009 98.6334 20.1432C98.6334 19.2773 97.9322 18.5761 97.0663 18.5761C95.8344 18.5761 94.833 17.5747 94.833 16.3428V14.0726H97.6823C98.5481 14.0726 99.2493 13.3714 99.2493 12.5056C99.2493 11.6378 98.5481 10.9366 97.6823 10.9366Z" fill="white"/>
<path d="M77.9075 33.7815H75.7071V31.583C75.7071 30.3705 76.693 29.3845 77.9055 29.3845C79.1181 29.3845 80.104 30.3705 80.104 31.583C80.104 32.7956 79.1181 33.7815 77.9075 33.7815ZM77.9075 26.2485C75.0214 26.2485 72.6679 28.5555 72.5807 31.4222C72.5749 31.4745 72.573 31.5288 72.573 31.583V35.3485V40.8593C72.573 41.7251 73.2742 42.4263 74.14 42.4263C75.0059 42.4263 75.7071 41.7251 75.7071 40.8593V36.9156H77.9055C80.8459 36.9156 83.24 34.5234 83.24 31.5811C83.24 28.6407 80.8478 26.2485 77.9075 26.2485Z" fill="#1A25E0"/>
<path d="M90.0292 33.7815H87.8307V31.583C87.8307 30.3705 88.8166 29.3845 90.0292 29.3845C91.2417 29.3845 92.2277 30.3705 92.2277 31.583C92.2277 32.7956 91.2417 33.7815 90.0292 33.7815ZM90.0292 26.2485C87.1431 26.2485 84.7896 28.5555 84.7025 31.4222C84.6966 31.4745 84.6947 31.5288 84.6947 31.583V35.3485V40.8593C84.6947 41.7251 85.3959 42.4263 86.2617 42.4263C87.1276 42.4263 87.8288 41.7251 87.8288 40.8593V36.9156H90.0273C92.9676 36.9156 95.3617 34.5234 95.3617 31.5811C95.3637 28.6407 92.9695 26.2485 90.0292 26.2485Z" fill="#1A25E0"/>
<path d="M77.5376 13.8692C78.6261 13.8692 79.5385 14.6227 79.7864 15.6358H75.2887C75.5366 14.6227 76.449 13.8692 77.5376 13.8692ZM75.8369 21.4971C76.385 21.6734 76.9584 21.7625 77.5376 21.7625C78.4363 21.7625 79.1646 21.0342 79.1646 20.1354C79.1646 19.2367 78.4363 18.5083 77.5376 18.5083C77.2954 18.5083 77.0572 18.4715 76.8286 18.3979C76.4645 18.2817 76.1449 18.0803 75.8892 17.8226H81.4832C81.52 17.8226 81.5529 17.8149 81.5897 17.811C82.4401 17.7568 83.1122 17.0517 83.1122 16.1878C83.1122 13.1138 80.6116 10.6132 77.5376 10.6132C74.4635 10.6132 71.9629 13.1138 71.9629 16.1878C71.9629 18.6207 73.5202 20.7553 75.8369 21.4971Z" fill="white"/>
<path d="M105.696 13.8692C106.782 13.8692 107.697 14.6227 107.944 15.6358H103.447C103.695 14.6227 104.607 13.8692 105.696 13.8692ZM105.696 10.6132C102.622 10.6132 100.121 13.1138 100.121 16.1878C100.121 18.6226 101.678 20.7553 103.995 21.4971C104.543 21.6734 105.116 21.7625 105.696 21.7625C106.594 21.7625 107.323 21.0342 107.323 20.1354C107.323 19.2367 106.594 18.5083 105.696 18.5083C105.454 18.5083 105.215 18.4715 104.987 18.3979C104.623 18.2817 104.303 18.0803 104.047 17.8226H109.641C109.678 17.8226 109.711 17.8149 109.748 17.813C110.598 17.7587 111.27 17.0537 111.27 16.1898C111.268 13.1138 108.768 10.6132 105.696 10.6132Z" fill="white"/>
<path d="M130.433 10.8843C129.567 10.8843 128.866 11.5855 128.866 12.4513V16.304C128.866 17.5359 127.865 18.5373 126.633 18.5373C125.401 18.5373 124.399 17.5359 124.399 16.304V12.5036C124.399 11.6378 123.698 10.9366 122.832 10.9366C121.966 10.9366 121.265 11.6378 121.265 12.5036V16.304C121.265 18.7194 122.869 20.7649 125.066 21.437V23.9493C125.066 24.8151 125.767 25.5163 126.633 25.5163C127.498 25.5163 128.2 24.8151 128.2 23.9493V21.437C130.396 20.7649 132 18.7194 132 16.304V12.4513C132 11.5855 131.299 10.8843 130.433 10.8843Z" fill="white"/>
</g>
<defs>
<clipPath id="clip0">
<rect width="72" height="36.9888" fill="white" transform="translate(60 5.4375)"/>
</clipPath>
</defs>
</svg>
