<svg width="352" height="128" viewBox="0 0 352 128" fill="none" xmlns="http://www.w3.org/2000/svg">
<path d="M105.525 128H22.48C10.0659 128 0 117.934 0 105.52V22.475C0 10.0614 10.0659 0 22.48 0H105.525C117.939 0 128 10.0614 128 22.475V105.52C128 117.934 117.939 128 105.525 128Z" fill="#0F0A30"/>
<path d="M105.633 111.333H72.3765C69.2518 111.333 66.7153 108.797 66.7153 105.671V72.4158C66.7153 69.289 69.2518 66.7537 72.3765 66.7537H105.633C108.758 66.7537 111.294 69.289 111.294 72.4158V105.671C111.294 108.802 108.762 111.333 105.633 111.333Z" fill="#1A25E0"/>
<path d="M55.5106 111.333H22.2588C19.1294 111.333 16.5976 108.797 16.5976 105.671V72.4158C16.5976 69.289 19.1341 66.7537 22.2588 66.7537H55.5106C58.6353 66.7537 61.1718 69.289 61.1718 72.4158V105.671C61.1765 108.802 58.64 111.333 55.5106 111.333Z" fill="white"/>
<path d="M72.1035 61.2136H22.2588C19.1294 61.2136 16.5976 58.6783 16.5976 55.5514V22.3013C16.5976 19.1745 19.1341 16.6392 22.2588 16.6392H72.1035C75.2282 16.6392 77.7647 19.1745 77.7647 22.3013V55.5514C77.7694 58.6783 75.2329 61.2136 72.1035 61.2136Z" fill="#85C598"/>
<path d="M105.633 61.2136H89.1153C85.9859 61.2136 83.4541 58.6783 83.4541 55.5514V22.3013C83.4541 19.1745 85.9906 16.6392 89.1153 16.6392H105.633C108.758 16.6392 111.294 19.1745 111.294 22.3013V55.5514C111.294 58.6783 108.762 61.2136 105.633 61.2136Z" fill="#6006AE"/>
<path d="M35.0259 91.1348V95.0222C35.0259 97.1678 36.7718 98.9144 38.9176 98.9144C41.0635 98.9144 42.8094 97.1678 42.8094 95.0222C42.8094 92.8766 41.0635 91.1348 38.9176 91.1348H35.0259ZM38.9176 105.563C33.1059 105.563 28.3765 100.835 28.3765 95.0222V75.8525C28.3765 74.0168 29.8635 72.5284 31.7035 72.5284C33.5388 72.5284 35.0306 74.0168 35.0306 75.8525V84.4866H38.9224C44.7341 84.4866 49.4635 89.2145 49.4635 95.0269C49.4541 100.835 44.7294 105.563 38.9176 105.563Z" fill="#0F0A30"/>
<path d="M52.2165 51.3869C49.6188 51.3869 46.9929 51.1146 44.5412 50.5746C39.9906 49.5746 37.3976 47.1379 36.4941 45.1942C35.6847 43.457 35.7694 41.5555 36.7388 39.701C38.9082 35.5553 46.0941 34.5834 51.7506 35.776C52.6682 35.9685 53.2565 36.8699 53.0635 37.7854C52.8706 38.7057 51.9671 39.2925 51.0494 39.1C46.0847 38.053 40.9129 39.0531 39.7459 41.2785C39.2659 42.1987 39.2094 42.9875 39.5718 43.7622C40.2682 45.2552 42.56 46.6637 45.2706 47.26C49.3271 48.152 53.9153 48.2365 57.8635 47.4853C63.3082 46.4524 65.9059 44.2598 67.1247 42.5978C68.2071 41.1236 68.4518 39.5789 67.8494 37.9967C66.6259 34.7806 62.1177 31.9261 56.3718 30.7147C50.3529 29.4471 43.8212 29.5786 37.9765 31.081C32.3765 32.5223 27.9718 35.1515 25.8965 38.2925C25.3788 39.0766 24.3247 39.2878 23.5435 38.7714C22.7624 38.2549 22.5459 37.1986 23.0635 36.4192C25.6376 32.5317 30.6353 29.4659 37.1341 27.7945C43.4729 26.1653 50.5553 26.0197 57.0777 27.3954C64.1365 28.8837 69.3506 32.3956 71.0306 36.7948C72.0424 39.4475 71.6282 42.2269 69.8682 44.6214C67.6 47.7013 63.6706 49.8516 58.5035 50.8282C56.5129 51.1991 54.3765 51.3869 52.2165 51.3869Z" fill="white"/>
<path d="M89.0071 76.4723C88.8518 76.4723 88.64 76.5286 88.5412 76.7962L85.9859 83.726C85.5906 84.7965 84.7529 85.6369 83.68 86.0313L76.7529 88.5854C76.4847 88.684 76.4282 88.8905 76.4282 89.0502C76.4282 89.2051 76.4847 89.4164 76.7529 89.515L83.68 92.0691C84.7482 92.4634 85.5906 93.3038 85.9859 94.3743L88.5412 101.304C88.64 101.572 88.8471 101.628 89.0071 101.628C89.1624 101.628 89.3694 101.572 89.4682 101.304L92.0235 94.3743C92.4188 93.3038 93.2565 92.4634 94.3294 92.0691L101.256 89.515C101.525 89.4164 101.581 89.2098 101.581 89.0502C101.581 88.8905 101.525 88.684 101.256 88.5854L94.3294 86.0313C93.2612 85.6369 92.4188 84.7965 92.0235 83.726L89.4682 76.7962C89.3694 76.5286 89.1624 76.4723 89.0071 76.4723ZM89.0071 105.018C87.36 105.018 85.9247 104.018 85.3553 102.473L82.8 95.5434C82.7482 95.4072 82.6447 95.2992 82.5082 95.2523L75.5812 92.6982C74.0329 92.1301 73.0353 90.6934 73.0353 89.0502C73.0353 87.4022 74.0329 85.9703 75.5812 85.3975L82.5082 82.8434C82.6447 82.7917 82.7529 82.6884 82.8 82.5523L85.3553 75.6225C85.9247 74.0778 87.36 73.0778 89.0071 73.0778C90.6541 73.0778 92.0894 74.0778 92.6588 75.6225L95.2141 82.5523C95.2659 82.6884 95.3694 82.7964 95.5059 82.8434L102.433 85.3975C103.981 85.9656 104.979 87.4022 104.979 89.0502C104.979 90.6981 103.981 92.1301 102.433 92.6982L95.5059 95.2523C95.3694 95.3039 95.2612 95.4072 95.2141 95.5434L92.6588 102.473C92.0847 104.018 90.6541 105.018 89.0071 105.018Z" fill="white"/>
<path d="M98.0423 52.3822C97.9153 52.3822 97.7929 52.3728 97.6612 52.3493C96.5035 52.1615 95.6612 51.1239 95.6612 49.8845V32.9496C95.6612 32.8885 95.5812 32.8744 95.5576 32.9308L93.4823 37.8605C93.1059 38.7573 92.2588 39.3348 91.3223 39.3348H89.0682C88.1835 39.3348 87.4118 38.6681 87.3506 37.7854C87.2894 36.8182 88.0565 36.0107 89.0118 36.0107H90.3059C90.5129 36.0107 90.7012 35.8839 90.7812 35.6961L94.4612 26.954C94.9082 25.893 95.9765 25.3014 97.0635 25.5221C98.1929 25.7474 98.9835 26.7568 98.9835 27.9682V43.7293C98.9835 43.7903 99.0682 43.8044 99.0918 43.7481L101.139 37.668C101.473 36.6774 102.367 36.0154 103.365 36.0154H105.671C106.555 36.0154 107.327 36.6821 107.388 37.5648C107.449 38.5319 106.682 39.3395 105.732 39.3395H104.461C104.24 39.3395 104.042 39.4803 103.972 39.6916L100.254 50.7342C99.9106 51.739 99.0306 52.3822 98.0423 52.3822Z" fill="white"/>
<g clip-path="url(#clip0)">
<path d="M174.313 49.433C171.028 49.433 168.357 46.7626 168.357 43.4774V37.527H174.313C177.598 37.527 180.269 40.1975 180.269 43.4826C180.269 46.7626 177.598 49.433 174.313 49.433ZM174.313 29.1643H168.363V18.6787C168.363 16.3698 166.488 14.5 164.179 14.5C161.87 14.5 160 16.3698 160 18.6787V43.4774C160 51.37 166.42 57.7905 174.313 57.7905C182.206 57.7905 188.626 51.37 188.626 43.4774C188.626 35.5848 182.206 29.1643 174.313 29.1643Z" fill="white"/>
<path d="M180.269 90.1719H174.313C171.028 90.1719 168.357 87.5014 168.357 84.2163C168.357 80.9312 171.028 78.2607 174.313 78.2607C177.598 78.2607 180.269 80.9312 180.269 84.2163V90.1719ZM174.313 69.9032C166.42 69.9032 160 76.3289 160 84.2215C160 92.1141 166.42 98.5346 174.313 98.5346H184.447C186.756 98.5346 188.626 96.6647 188.626 94.3558V84.2215C188.626 76.3289 182.206 69.9032 174.313 69.9032Z" fill="#1A25E0"/>
<path d="M316.111 29.1643H312.852C306.184 29.1643 300.76 34.5879 300.76 41.2615V53.6169C300.76 55.9258 302.63 57.7957 304.939 57.7957C307.248 57.7957 309.118 55.9258 309.118 53.6169V41.2615C309.118 39.2005 310.791 37.527 312.852 37.527H316.111C318.42 37.527 320.29 35.6571 320.29 33.3482C320.29 31.0342 318.42 29.1643 316.111 29.1643Z" fill="white"/>
<path d="M260.486 29.1643H252.888V18.6787C252.888 16.3698 251.018 14.5 248.709 14.5C246.4 14.5 244.53 16.3698 244.53 18.6787V29.1643H232.877V18.6787C232.877 16.3698 231.008 14.5 228.699 14.5C226.39 14.5 224.52 16.3698 224.52 18.6787V43.5756C224.52 51.4682 230.94 57.8887 238.833 57.8887C241.142 57.8887 243.012 56.0188 243.012 53.7099C243.012 51.401 241.142 49.5312 238.833 49.5312C235.553 49.5312 232.877 46.8607 232.877 43.5756V37.527H244.53V43.5807C244.53 51.4733 250.951 57.8938 258.843 57.8938C261.152 57.8938 263.022 56.024 263.022 53.7151C263.022 51.4062 261.152 49.5363 258.843 49.5363C255.558 49.5363 252.888 46.8659 252.888 43.5807V37.527H260.486C262.795 37.527 264.665 35.6571 264.665 33.3482C264.665 31.0342 262.795 29.1643 260.486 29.1643Z" fill="white"/>
<path d="M207.753 90.0841H201.886V84.2215C201.886 80.988 204.515 78.3589 207.748 78.3589C210.982 78.3589 213.611 80.988 213.611 84.2215C213.611 87.455 210.982 90.0841 207.753 90.0841ZM207.753 69.9962C200.057 69.9962 193.781 76.1481 193.549 83.7928C193.533 83.9322 193.528 84.0769 193.528 84.2215V94.2629V108.958C193.528 111.267 195.398 113.137 197.707 113.137C200.016 113.137 201.886 111.267 201.886 108.958V98.4416H207.748C215.589 98.4416 221.973 92.0625 221.973 84.2163C221.973 76.3754 215.594 69.9962 207.753 69.9962Z" fill="#1A25E0"/>
<path d="M240.078 90.0841H234.215V84.2215C234.215 80.988 236.844 78.3589 240.078 78.3589C243.311 78.3589 245.941 80.988 245.941 84.2215C245.941 87.455 243.311 90.0841 240.078 90.0841ZM240.078 69.9962C232.382 69.9962 226.106 76.1481 225.873 83.7928C225.858 83.9322 225.853 84.0769 225.853 84.2215V94.2629V108.958C225.853 111.267 227.722 113.137 230.031 113.137C232.34 113.137 234.21 111.267 234.21 108.958V98.4416H240.073C247.914 98.4416 254.298 92.0625 254.298 84.2163C254.303 76.3754 247.919 69.9962 240.078 69.9962Z" fill="#1A25E0"/>
<path d="M206.767 36.9847C209.67 36.9847 212.103 38.994 212.764 41.6954H200.77C201.431 38.994 203.864 36.9847 206.767 36.9847ZM202.232 57.3257C203.693 57.7957 205.222 58.0333 206.767 58.0333C209.163 58.0333 211.106 56.0912 211.106 53.6945C211.106 51.2977 209.163 49.3556 206.767 49.3556C206.121 49.3556 205.486 49.2575 204.876 49.0612C203.905 48.7512 203.053 48.2141 202.371 47.5271H217.289C217.387 47.5271 217.474 47.5064 217.573 47.4961C219.84 47.3514 221.633 45.4713 221.633 43.1675C221.633 34.9702 214.964 28.3018 206.767 28.3018C198.569 28.3018 191.901 34.9702 191.901 43.1675C191.901 49.6552 196.054 55.3474 202.232 57.3257Z" fill="white"/>
<path d="M281.855 36.9847C284.753 36.9847 287.191 38.994 287.852 41.6954H275.858C276.519 38.994 278.952 36.9847 281.855 36.9847ZM281.855 28.3018C273.658 28.3018 266.989 34.9702 266.989 43.1675C266.989 49.6603 271.142 55.3474 277.32 57.3257C278.782 57.7957 280.311 58.0333 281.855 58.0333C284.252 58.0333 286.194 56.0912 286.194 53.6945C286.194 51.2977 284.252 49.3556 281.855 49.3556C281.209 49.3556 280.574 49.2575 279.964 49.0612C278.993 48.7512 278.141 48.2141 277.459 47.5271H292.377C292.475 47.5271 292.563 47.5064 292.661 47.5012C294.928 47.3566 296.721 45.4764 296.721 43.1727C296.716 34.9702 290.047 28.3018 281.855 28.3018Z" fill="white"/>
<path d="M347.821 29.0249C345.512 29.0249 343.643 30.8947 343.643 33.2036V43.4775C343.643 46.7626 340.972 49.4331 337.687 49.4331C334.402 49.4331 331.731 46.7626 331.731 43.4775V33.3431C331.731 31.0342 329.861 29.1644 327.553 29.1644C325.244 29.1644 323.374 31.0342 323.374 33.3431V43.4775C323.374 49.9186 327.651 55.3732 333.508 57.1655V63.865C333.508 66.1739 335.378 68.0437 337.687 68.0437C339.996 68.0437 341.866 66.1739 341.866 63.865V57.1655C347.723 55.3732 352 49.9186 352 43.4775V33.2036C352 30.8947 350.13 29.0249 347.821 29.0249Z" fill="white"/>
</g>
<defs>
<clipPath id="clip0">
<rect width="192" height="98.6369" fill="white" transform="translate(160 14.5)"/>
</clipPath>
</defs>
</svg>
