<svg width="418" height="418" viewBox="0 0 418 418" fill="none" xmlns="http://www.w3.org/2000/svg">
<path opacity="0.1" d="M236.174 27.1621C233.912 26.8235 226.187 26.3379 221.836 34.2736L170.432 128.014C164.656 138.55 154.592 145.993 142.829 148.441L38.1565 170.19C29.2943 172.031 27.5052 179.557 27.1666 181.826C26.8279 184.087 26.3424 191.812 34.2781 196.164L128.012 247.567C138.548 253.343 145.999 263.406 148.439 275.176L170.189 379.842C172.029 388.704 179.556 390.499 181.824 390.838C184.086 391.177 191.811 391.662 196.162 383.726L247.566 289.987C253.342 279.45 263.406 272.007 275.175 269.559L379.848 247.81C388.71 245.969 390.499 238.443 390.838 236.174C391.176 233.913 391.662 226.188 383.726 221.836L289.986 170.433C279.45 164.657 271.999 154.594 269.559 142.824L247.809 38.1584C245.962 29.2962 238.435 27.5008 236.174 27.1621ZM177.831 417.533C160.662 414.965 147.283 402.326 143.756 385.33L122.006 280.664C121.169 276.645 118.632 273.214 115.035 271.24L21.301 219.837C6.08125 211.486 -2.09731 195.001 0.464884 177.832C3.03346 160.664 15.6719 147.284 32.6679 143.757L137.334 122.007C141.353 121.17 144.785 118.634 146.759 115.036L198.162 21.2966C206.507 6.0769 222.998 -2.10162 240.167 0.466946C257.336 3.03551 270.715 15.6739 274.242 32.6699L295.992 137.342C296.823 141.361 299.366 144.792 302.963 146.767L396.703 198.17C411.923 206.514 420.102 223.006 417.533 240.174C414.964 257.343 402.326 270.722 385.33 274.249L280.657 295.999C276.638 296.836 273.207 299.373 271.233 302.97L219.829 396.71C211.491 411.923 195 420.102 177.831 417.533Z" fill="white"/>
</svg>
