<svg width="412" height="367" viewBox="0 0 412 367" fill="none" xmlns="http://www.w3.org/2000/svg">
<path opacity="0.1" d="M150.956 364.291C149.652 363.711 148.368 363.033 147.109 362.266C134.564 354.564 129.208 339.992 133.783 326.007L230.003 32.0055C230.203 31.3992 230.57 30.2768 229.041 29.2898C227.505 28.2965 226.634 29.0963 226.169 29.5221L114.339 131.047C104.556 139.929 90.4555 142.187 78.3942 136.82C78.3555 136.801 78.3168 136.788 78.2845 136.768L8.49809 105.341C1.23808 102.071 -1.99505 93.5435 1.2768 86.2866C4.53573 79.0491 13.0348 75.8174 20.2819 79.0427C20.3013 79.0491 20.3206 79.062 20.34 79.0685L90.1135 110.489C90.1199 110.489 90.1264 110.495 90.1264 110.495C91.7397 111.211 93.637 110.908 94.9599 109.715L206.79 8.19019C217.419 -1.45979 232.661 -2.70474 244.716 5.10684C256.771 12.912 261.869 27.3224 257.403 40.9653L161.184 334.967C160.984 335.586 160.603 336.734 162.191 337.715C163.778 338.689 164.637 337.831 165.095 337.373L282.004 220.445C291.619 210.827 305.932 208.014 318.471 213.284L403.255 249.498C410.515 252.626 413.974 261.089 410.844 268.411C407.715 275.725 399.248 279.125 391.923 275.996L307.23 239.809C305.623 239.132 303.693 239.512 302.396 240.809L185.487 357.737C176.124 367.104 162.694 369.516 150.956 364.291Z" fill="white"/>
</svg>
