<svg width="264" height="96" viewBox="0 0 264 96" fill="none" xmlns="http://www.w3.org/2000/svg">
<path d="M79.1435 96H16.86C7.54941 96 0 88.4504 0 79.1402V16.8563C0 7.54605 7.54941 0 16.86 0H79.1435C88.4541 0 96 7.54605 96 16.8563V79.1402C96 88.4504 88.4541 96 79.1435 96Z" fill="#0F0A30"/>
<path d="M79.2246 83.4995H54.2823C51.9387 83.4995 50.0364 81.598 50.0364 79.2529V54.3118C50.0364 51.9667 51.9387 50.0652 54.2823 50.0652H79.2246C81.5681 50.0652 83.4705 51.9667 83.4705 54.3118V79.2529C83.4705 81.6016 81.5717 83.4995 79.2246 83.4995Z" fill="#1A25E0"/>
<path d="M41.6329 83.4995H16.6941C14.3471 83.4995 12.4482 81.598 12.4482 79.2529V54.3118C12.4482 51.9667 14.3506 50.0652 16.6941 50.0652H41.6329C43.9765 50.0652 45.8788 51.9667 45.8788 54.3118V79.2529C45.8824 81.6016 43.98 83.4995 41.6329 83.4995Z" fill="white"/>
<path d="M54.0777 45.9102H16.6941C14.3471 45.9102 12.4482 44.0087 12.4482 41.6635V16.726C12.4482 14.3808 14.3506 12.4794 16.6941 12.4794H54.0777C56.4212 12.4794 58.3235 14.3808 58.3235 16.726V41.6635C58.3271 44.0087 56.4247 45.9102 54.0777 45.9102Z" fill="#85C598"/>
<path d="M79.2247 45.9102H66.8365C64.4894 45.9102 62.5906 44.0087 62.5906 41.6635V16.726C62.5906 14.3808 64.4929 12.4794 66.8365 12.4794H79.2247C81.5682 12.4794 83.4706 14.3808 83.4706 16.726V41.6635C83.4706 44.0087 81.5718 45.9102 79.2247 45.9102Z" fill="#6006AE"/>
<path d="M26.2695 68.3511V71.2667C26.2695 72.8759 27.5789 74.1858 29.1884 74.1858C30.7978 74.1858 32.1072 72.8759 32.1072 71.2667C32.1072 69.6575 30.7978 68.3511 29.1884 68.3511H26.2695ZM29.1884 79.1719C24.8295 79.1719 21.2825 75.626 21.2825 71.2667V56.8894C21.2825 55.5126 22.3978 54.3964 23.7778 54.3964C25.1542 54.3964 26.2731 55.5126 26.2731 56.8894V63.365H29.1919C33.5507 63.365 37.0978 66.9109 37.0978 71.2702C37.0907 75.626 33.5472 79.1719 29.1884 79.1719Z" fill="#0F0A30"/>
<path d="M39.1624 38.5401C37.2142 38.5401 35.2447 38.3359 33.4059 37.9309C29.993 37.1809 28.0483 35.3534 27.3706 33.8956C26.7636 32.5927 26.8271 31.1666 27.5542 29.7757C29.1812 26.6664 34.5706 25.9375 38.813 26.8319C39.5012 26.9763 39.9424 27.6524 39.7977 28.339C39.653 29.0292 38.9753 29.4694 38.2871 29.325C34.5636 28.5398 30.6847 29.2898 29.8094 30.9589C29.4494 31.649 29.4071 32.2406 29.6789 32.8216C30.2012 33.9414 31.92 34.9977 33.953 35.4449C36.9953 36.114 40.4365 36.1774 43.3977 35.614C47.4812 34.8393 49.4294 33.1949 50.3436 31.9483C51.1553 30.8427 51.3389 29.6842 50.8871 28.4975C49.9694 26.0854 46.5883 23.9445 42.2789 23.036C37.7647 22.0853 32.8659 22.1839 28.4824 23.3107C24.2824 24.3917 20.9789 26.3636 19.4224 28.7193C19.0342 29.3074 18.2436 29.4658 17.6577 29.0785C17.0718 28.6912 16.9094 27.8989 17.2977 27.3144C19.2283 24.3988 22.9765 22.0994 27.8506 20.8458C32.6047 19.6239 37.9165 19.5148 42.8083 20.5465C48.1024 21.6627 52.013 24.2966 53.273 27.5961C54.0318 29.5856 53.7212 31.6701 52.4012 33.466C50.7 35.7759 47.753 37.3887 43.8777 38.1211C42.3847 38.3993 40.7824 38.5401 39.1624 38.5401Z" fill="white"/>
<path d="M66.7552 57.3542C66.6387 57.3542 66.4799 57.3965 66.4058 57.5972L64.4893 62.7946C64.1928 63.5974 63.5646 64.2277 62.7599 64.5235L57.5646 66.4391C57.3634 66.513 57.3211 66.6679 57.3211 66.7877C57.3211 66.9039 57.3634 67.0623 57.5646 67.1363L62.7599 69.0518C63.5611 69.3476 64.1928 69.9779 64.4893 70.7808L66.4058 75.9781C66.4799 76.1789 66.6352 76.2211 66.7552 76.2211C66.8717 76.2211 67.027 76.1789 67.1011 75.9781L69.0175 70.7808C69.314 69.9779 69.9423 69.3476 70.747 69.0518L75.9423 67.1363C76.1434 67.0623 76.1858 66.9074 76.1858 66.7877C76.1858 66.6679 76.1434 66.513 75.9423 66.4391L70.747 64.5235C69.9458 64.2277 69.314 63.5974 69.0175 62.7946L67.1011 57.5972C67.027 57.3965 66.8717 57.3542 66.7552 57.3542ZM66.7552 78.7635C65.5199 78.7635 64.4434 78.0134 64.0164 76.8549L62.0999 71.6576C62.0611 71.5554 61.9834 71.4745 61.8811 71.4392L56.6858 69.5237C55.5246 69.0976 54.7764 68.0201 54.7764 66.7877C54.7764 65.5517 55.5246 64.4777 56.6858 64.0481L61.8811 62.1326C61.9834 62.0938 62.0646 62.0164 62.0999 61.9142L64.0164 56.7169C64.4434 55.5584 65.5199 54.8083 66.7552 54.8083C67.9905 54.8083 69.067 55.5584 69.494 56.7169L71.4105 61.9142C71.4493 62.0164 71.527 62.0973 71.6293 62.1326L76.8246 64.0481C77.9858 64.4742 78.734 65.5517 78.734 66.7877C78.734 68.0236 77.9858 69.0976 76.8246 69.5237L71.6293 71.4392C71.527 71.478 71.4458 71.5554 71.4105 71.6576L69.494 76.8549C69.0634 78.0134 67.9905 78.7635 66.7552 78.7635Z" fill="white"/>
<path d="M73.5316 39.2867C73.4364 39.2867 73.3446 39.2796 73.2458 39.262C72.3775 39.1212 71.7458 38.343 71.7458 37.4134V24.7122C71.7458 24.6664 71.6858 24.6559 71.6681 24.6981L70.1116 28.3954C69.8293 29.068 69.194 29.5011 68.4916 29.5011H66.8011C66.1375 29.5011 65.5587 29.0011 65.5128 28.3391C65.4669 27.6137 66.0422 27.0081 66.7587 27.0081H67.7293C67.8846 27.0081 68.0258 26.913 68.0858 26.7721L70.8458 20.2156C71.1811 19.4198 71.9822 18.9761 72.7975 19.1416C73.6446 19.3106 74.2375 20.0677 74.2375 20.9761V32.797C74.2375 32.8428 74.3011 32.8533 74.3187 32.8111L75.854 28.2511C76.1046 27.5081 76.7752 27.0116 77.5234 27.0116H79.2528C79.9164 27.0116 80.4952 27.5116 80.5411 28.1736C80.5869 28.899 80.0116 29.5046 79.2987 29.5046H78.3458C78.1799 29.5046 78.0316 29.6103 77.9787 29.7687L75.1905 38.0507C74.9328 38.8043 74.2728 39.2867 73.5316 39.2867Z" fill="white"/>
<g clip-path="url(#clip0)">
<path d="M130.735 37.0748C128.271 37.0748 126.268 35.0719 126.268 32.6081V28.1452H130.735C133.199 28.1452 135.202 30.1481 135.202 32.6119C135.202 35.0719 133.199 37.0748 130.735 37.0748ZM130.735 21.8733H126.272V14.0091C126.272 12.2774 124.866 10.875 123.134 10.875C121.402 10.875 120 12.2774 120 14.0091V32.6081C120 38.5275 124.815 43.3429 130.735 43.3429C136.654 43.3429 141.47 38.5275 141.47 32.6081C141.47 26.6886 136.654 21.8733 130.735 21.8733Z" fill="white"/>
<path d="M135.202 67.6289H130.735C128.271 67.6289 126.268 65.626 126.268 63.1622C126.268 60.6983 128.271 58.6955 130.735 58.6955C133.199 58.6955 135.202 60.6983 135.202 63.1622V67.6289ZM130.735 52.4274C124.815 52.4274 120 57.2466 120 63.1661C120 69.0855 124.815 73.9009 130.735 73.9009H138.336C140.067 73.9009 141.47 72.4985 141.47 70.7668V63.1661C141.47 57.2466 136.654 52.4274 130.735 52.4274Z" fill="#1A25E0"/>
<path d="M237.084 21.8733H234.639C229.638 21.8733 225.57 25.941 225.57 30.9462V40.2128C225.57 41.9444 226.972 43.3468 228.704 43.3468C230.436 43.3468 231.838 41.9444 231.838 40.2128V30.9462C231.838 29.4005 233.093 28.1453 234.639 28.1453H237.084C238.815 28.1453 240.218 26.7429 240.218 25.0112C240.218 23.2757 238.815 21.8733 237.084 21.8733Z" fill="white"/>
<path d="M195.364 21.8733H189.666V14.0091C189.666 12.2774 188.263 10.875 186.532 10.875C184.8 10.875 183.398 12.2774 183.398 14.0091V21.8733H174.658V14.0091C174.658 12.2774 173.256 10.875 171.524 10.875C169.792 10.875 168.39 12.2774 168.39 14.0091V32.6817C168.39 38.6011 173.205 43.4165 179.125 43.4165C180.856 43.4165 182.259 42.0141 182.259 40.2824C182.259 38.5508 180.856 37.1484 179.125 37.1484C176.665 37.1484 174.658 35.1455 174.658 32.6817V28.1452H183.398V32.6856C183.398 38.605 188.213 43.4204 194.133 43.4204C195.864 43.4204 197.267 42.018 197.267 40.2863C197.267 38.5546 195.864 37.1523 194.133 37.1523C191.669 37.1523 189.666 35.1494 189.666 32.6856V28.1452H195.364C197.096 28.1452 198.499 26.7429 198.499 25.0112C198.499 23.2756 197.096 21.8733 195.364 21.8733Z" fill="white"/>
<path d="M155.815 67.563H151.414V63.166C151.414 60.7409 153.386 58.7691 155.811 58.7691C158.236 58.7691 160.208 60.7409 160.208 63.166C160.208 65.5911 158.236 67.563 155.815 67.563ZM155.815 52.4971C150.043 52.4971 145.336 57.111 145.161 62.8445C145.15 62.9491 145.146 63.0576 145.146 63.166V70.6971V81.7186C145.146 83.4502 146.548 84.8526 148.28 84.8526C150.012 84.8526 151.414 83.4502 151.414 81.7186V73.8311H155.811C161.692 73.8311 166.48 69.0467 166.48 63.1622C166.48 57.2814 161.696 52.4971 155.815 52.4971Z" fill="#1A25E0"/>
<path d="M180.058 67.563H175.661V63.166C175.661 60.7409 177.633 58.7691 180.058 58.7691C182.483 58.7691 184.455 60.7409 184.455 63.166C184.455 65.5911 182.483 67.563 180.058 67.563ZM180.058 52.4971C174.286 52.4971 169.579 57.111 169.405 62.8445C169.393 62.9491 169.389 63.0576 169.389 63.166V70.6971V81.7186C169.389 83.4502 170.792 84.8526 172.523 84.8526C174.255 84.8526 175.658 83.4502 175.658 81.7186V73.8311H180.055C185.935 73.8311 190.723 69.0467 190.723 63.1622C190.727 57.2814 185.939 52.4971 180.058 52.4971Z" fill="#1A25E0"/>
<path d="M155.075 27.7385C157.252 27.7385 159.077 29.2455 159.573 31.2716H150.577C151.073 29.2455 152.898 27.7385 155.075 27.7385ZM151.674 42.9943C152.77 43.3468 153.917 43.525 155.075 43.525C156.873 43.525 158.329 42.0684 158.329 40.2708C158.329 38.4733 156.873 37.0167 155.075 37.0167C154.591 37.0167 154.114 36.9431 153.657 36.7959C152.929 36.5634 152.29 36.1605 151.778 35.6453H162.966C163.04 35.6453 163.106 35.6298 163.179 35.6221C164.88 35.5136 166.224 34.1035 166.224 32.3757C166.224 26.2276 161.223 21.2263 155.075 21.2263C148.927 21.2263 143.926 26.2276 143.926 32.3757C143.926 37.2414 147.04 41.5105 151.674 42.9943Z" fill="white"/>
<path d="M211.391 27.7385C213.565 27.7385 215.393 29.2455 215.889 31.2716H206.894C207.389 29.2455 209.214 27.7385 211.391 27.7385ZM211.391 21.2263C205.243 21.2263 200.242 26.2276 200.242 32.3757C200.242 37.2453 203.357 41.5105 207.99 42.9943C209.086 43.3468 210.233 43.525 211.391 43.525C213.189 43.525 214.645 42.0684 214.645 40.2708C214.645 38.4733 213.189 37.0167 211.391 37.0167C210.907 37.0167 210.431 36.9431 209.973 36.7959C209.245 36.5634 208.606 36.1605 208.095 35.6453H219.283C219.356 35.6453 219.422 35.6298 219.496 35.6259C221.196 35.5175 222.541 34.1073 222.541 32.3795C222.537 26.2276 217.535 21.2263 211.391 21.2263Z" fill="white"/>
<path d="M260.866 21.7687C259.134 21.7687 257.732 23.1711 257.732 24.9027V32.6081C257.732 35.0719 255.729 37.0748 253.265 37.0748C250.801 37.0748 248.798 35.0719 248.798 32.6081V25.0073C248.798 23.2757 247.396 21.8733 245.664 21.8733C243.933 21.8733 242.53 23.2757 242.53 25.0073V32.6081C242.53 37.439 245.738 41.5299 250.131 42.8742V47.8987C250.131 49.6304 251.533 51.0328 253.265 51.0328C254.997 51.0328 256.399 49.6304 256.399 47.8987V42.8742C260.792 41.5299 264 37.439 264 32.6081V24.9027C264 23.1711 262.598 21.7687 260.866 21.7687Z" fill="white"/>
</g>
<defs>
<clipPath id="clip0">
<rect width="144" height="73.9777" fill="white" transform="translate(120 10.875)"/>
</clipPath>
</defs>
</svg>
